<svg width="244" height="77" viewBox="0 0 244 77" fill="none" xmlns="http://www.w3.org/2000/svg">
<path d="M9.04948 69.8177L8.86488 70.1008C7.36367 69.9913 6.16917 69.316 5.2498 68.0441C4.96471 67.672 4.67866 67.2062 4.42289 66.6463C4.26311 66.3042 4.10205 65.8371 3.93939 65.2137C3.77608 64.5278 3.67687 63.9976 3.64177 63.6229C3.60699 63.2795 3.5706 62.7799 3.56386 62.1236L3.54812 60.5925C3.57712 60.3734 3.63608 60.029 3.69376 59.5597C3.75144 59.0903 3.77883 58.715 3.77594 58.4338C3.77466 58.3088 3.8043 58.1522 3.8333 57.9332C3.8623 57.7141 3.89194 57.5575 3.89098 57.4638L4.10297 56.8053C4.19318 56.4606 4.12812 56.2113 3.90777 56.0573C3.30795 55.4697 2.89658 54.9739 2.67399 54.6011C2.3889 54.2291 2.00718 53.5767 1.55974 52.6125C1.52625 52.3941 1.42929 52.0826 1.30012 51.6776C1.17095 51.2727 1.07432 50.9924 1.04146 50.8365C0.781517 49.8703 0.646566 48.9029 0.636609 47.9342C0.634361 47.7155 0.631149 47.403 0.595725 46.9971C0.560301 46.5912 0.55741 46.31 0.555805 46.1537C0.554841 46.06 0.553877 45.9662 0.584162 45.8722C0.614447 45.7781 0.613804 45.7156 0.613483 45.6843C0.726271 44.4956 0.782344 43.87 0.781702 43.8075C0.926059 42.6497 1.07267 41.7107 1.22152 40.9904C1.45962 39.8316 1.76022 38.6722 2.12332 37.5121C2.2757 37.1356 2.61012 36.2258 3.12625 34.7517C3.15589 34.5951 3.24707 34.3442 3.4001 34.0301C3.55312 33.716 3.67555 33.4647 3.76769 33.3075C3.8579 32.9628 3.94908 32.7119 4.04089 32.5234C4.31603 31.9268 4.53059 31.5183 4.68458 31.298C4.71487 31.2039 4.77576 31.047 4.86725 30.8273C4.95875 30.6076 5.05089 30.4504 5.14367 30.3557C5.17396 30.2617 5.26545 30.042 5.41816 29.6966C5.57087 29.3513 5.69329 29.1 5.81668 28.9425C5.90946 28.8478 6.06313 28.5962 6.24645 28.188C6.42976 27.7799 6.64561 27.4964 6.86307 27.3691C6.89399 27.3376 6.92492 27.306 6.9246 27.2748C6.92363 27.181 6.95456 27.1494 6.98581 27.1491C7.10791 26.8666 7.19973 26.6781 7.23002 26.5841C7.26126 26.5838 7.44618 26.3318 7.7851 25.8596C7.90881 25.7333 8.21647 25.2614 8.70809 24.4438C8.95391 24.035 9.20068 23.7199 9.47967 23.4983C9.60466 23.497 9.66652 23.4339 9.66523 23.3089C9.75673 23.0892 9.87979 22.9004 10.0341 22.7113C10.1884 22.5222 10.3737 22.3015 10.5902 22.0806C10.8066 21.8596 10.961 21.6705 11.0534 21.5445C11.393 21.1348 11.6091 20.8825 11.7019 20.7878C11.7947 20.6931 12.0109 20.4409 12.3189 20.0002C12.6269 19.5595 12.9052 19.2754 13.1851 19.1475C13.3411 19.1146 13.4645 18.9571 13.5556 18.7061C13.5856 18.5808 13.7087 18.3921 13.9251 18.1711C14.3903 17.8225 14.6381 17.6012 14.668 17.4759C14.7927 17.4434 14.9474 17.2855 15.101 17.0339C15.2547 16.7823 15.3781 16.6248 15.4715 16.5926C15.5952 16.4663 15.7811 16.3081 16.0288 16.0868C16.2766 15.8655 16.4625 15.7074 16.5552 15.6127C17.1135 15.2006 17.4234 14.9474 17.4541 14.8846L17.5159 14.8215C17.6071 14.5705 17.8233 14.3183 18.1957 14.0645C18.5681 13.8106 18.7849 13.6209 18.8152 13.5268L19.1863 13.148C19.2175 13.1477 19.4965 12.926 20.0233 12.4831C20.3644 12.2296 20.6122 12.0083 20.7668 11.8504L20.8905 11.7241C21.1402 11.6903 21.3264 11.5634 21.4179 11.3437C21.4166 11.2187 21.4784 11.1556 21.6034 11.1543C21.8843 11.1201 22.1327 10.9613 22.3486 10.6778C22.441 10.5519 22.9065 10.2346 23.7454 9.75719L23.8698 9.69341C23.901 9.69309 23.932 9.66152 23.9316 9.63027C23.9603 9.37997 24.2393 9.15834 24.737 8.93446C25.296 8.58494 25.6378 8.39392 25.7621 8.33014C26.0105 8.17133 26.1658 8.07598 26.1967 8.04441C26.1964 8.01316 26.2895 7.9497 26.476 7.85403C26.7247 7.72646 26.9419 7.56797 27.0962 7.37888C27.1896 7.34667 27.3449 7.25132 27.5623 7.12407C27.7798 6.99683 27.9351 6.90148 28.0285 6.86927C28.1844 6.83641 28.3397 6.74106 28.4946 6.61446C28.5874 6.51976 28.6808 6.48754 28.8058 6.48626C28.8993 6.45405 29.023 6.32777 29.2085 6.13835C29.4257 5.97986 29.799 5.81977 30.3287 5.65806C30.6714 5.56078 30.8579 5.46511 30.8882 5.37105C30.9192 5.33948 31.1679 5.21191 31.6031 4.98868C31.8521 4.89236 32.1321 4.76448 32.4117 4.60535C32.5364 4.57281 32.7854 4.4765 33.1588 4.3164C33.5321 4.15631 33.8124 4.05967 34.0308 4.02617C34.1242 3.99396 34.591 3.80166 35.4312 3.44925L36.1477 3.22312C36.2414 3.22216 36.3661 3.18963 36.5526 3.09396C36.7392 2.99828 36.8951 2.96543 36.9888 2.96447C37.0816 2.86976 37.175 2.83755 37.3003 2.86751C37.4257 2.89747 37.7066 2.86333 38.1118 2.76541L38.8911 2.56989L39.1398 2.44233L39.2017 2.37919C39.2951 2.34698 39.3576 2.34634 39.3892 2.37726C39.5457 2.40691 40.1391 2.36955 41.169 2.23396C41.7615 2.10287 42.4174 2.06487 43.137 2.15123L43.9807 2.14256C44.0745 2.14159 44.1998 2.17156 44.3564 2.2012C44.5129 2.23084 44.6382 2.26081 44.732 2.25984L44.7951 2.3217L44.8889 2.32073C45.1691 2.2241 45.5757 2.25117 46.077 2.37102C46.5782 2.49088 46.9226 2.54984 47.0788 2.54824C47.1726 2.54727 47.4235 2.63845 47.8632 2.85269C48.0205 2.94483 48.2714 3.036 48.5852 3.15779C48.8989 3.27957 49.1499 3.37074 49.3071 3.46288C50.5026 4.23189 51.2271 4.78697 51.4809 5.15938L52.4608 6.24311C52.5874 6.39807 52.7462 6.64645 52.9373 6.98826C53.319 7.64062 53.606 8.2002 53.7671 8.66732C54.1562 10.0384 54.3846 10.9736 54.4522 11.4729C54.457 11.9416 54.4953 12.6288 54.5984 13.534C54.5987 13.5653 54.5994 13.6278 54.6312 13.6899C54.6631 13.7521 54.6638 13.8146 54.6641 13.8459L54.6647 13.9084C54.6657 14.0021 54.6354 14.0962 54.6055 14.2215C54.5755 14.3468 54.5455 14.4721 54.5152 14.5662C54.485 14.6603 54.4859 14.754 54.4869 14.8477C54.5236 15.3786 54.4691 16.1605 54.3235 17.1933L53.9356 18.9786C53.9069 19.2289 53.817 19.6049 53.6662 20.1377C53.4555 20.9212 53.2438 21.6109 53.0312 22.2068C52.7892 22.9906 52.5763 23.5553 52.3926 23.9322C52.3636 24.1513 52.2731 24.4648 52.1214 24.9038L50.2286 29.2673C49.9535 29.8639 49.4628 30.7752 48.7876 31.9697C48.6951 32.0957 48.5111 32.4413 48.2048 33.0383C47.8984 33.6352 47.6529 34.0753 47.437 34.3587L46.5166 36.0245L45.1948 38.1632C44.7331 38.8555 44.3018 39.4537 43.9319 39.9576L42.9777 41.3737C42.8852 41.4996 42.7312 41.72 42.4848 42.0663C42.2383 42.4126 42.0531 42.6333 41.9294 42.7595C41.8991 42.8536 41.7141 43.1055 41.4058 43.515C41.0975 43.9244 40.8508 44.2395 40.6968 44.4598C40.4194 44.8377 39.8334 45.5937 38.9387 46.728C38.2293 47.6416 37.7355 48.2404 37.4884 48.5242L36.1608 50.1005C36.037 50.2267 35.8827 50.4158 35.6669 50.6993C35.451 50.9828 35.297 51.2032 35.1737 51.3607C35.1427 51.3922 34.8025 51.7395 34.1846 52.4334C33.5667 53.1273 33.1031 53.6321 32.7629 53.9793C32.6396 54.1369 32.4234 54.3891 32.0829 54.7051C31.7423 55.0211 31.5262 55.2734 31.4031 55.4622C30.3825 56.5039 29.609 57.2619 29.0826 57.7361C28.4335 58.4303 27.6909 59.1568 26.8546 59.8841C26.5759 60.137 26.266 60.3902 25.9564 60.6747C25.6468 60.9591 25.3063 61.2751 24.9348 61.6227C24.5634 61.9703 24.2535 62.2235 24.0363 62.382C22.8898 63.3313 22.27 63.8377 22.1765 63.8699L21.587 64.2823C21.3077 64.4726 21.1218 64.6308 20.9981 64.7571C20.9047 64.7893 20.6875 64.9478 20.3464 65.2013C20.0052 65.4548 19.7256 65.614 19.5078 65.71C18.235 66.5356 17.1793 67.2027 16.3404 67.6801C15.4084 68.221 14.8488 68.508 14.662 68.5724C14.4442 68.6684 14.133 68.7966 13.6971 68.9574C13.2613 69.1181 12.9813 69.246 12.826 69.3413C11.674 69.7594 10.4257 69.9285 9.04948 69.8177ZM8.60911 69.5409L8.20449 69.7013C8.89356 69.8505 9.92443 69.8087 11.2655 69.5449C12.0757 69.3178 13.258 68.8056 14.7812 68.0087C15.8375 67.404 16.9557 66.7362 18.1358 66.0053C18.4154 65.8462 18.7256 65.6242 19.0668 65.3707C19.408 65.1172 19.8113 64.8318 20.2459 64.5461C20.6805 64.2603 20.9904 64.0071 21.2072 63.8174C21.7346 63.4369 22.4781 62.8043 23.4694 61.9503C25.2035 60.4011 26.535 59.1999 27.4638 58.3465L30.3403 55.4418L31.1754 54.5894L32.0104 53.7371C32.7829 52.8853 33.3696 52.1918 33.7704 51.6564L36.7661 48.1879C37.5986 47.0855 38.2465 46.2663 38.7097 45.7303L39.9127 44.1866C41.7909 41.4484 42.8376 39.9063 43.0531 39.5916C43.8234 38.5211 44.5309 37.42 45.1758 36.3196C45.8224 35.3754 46.4365 34.3065 47.0492 33.1127C47.2029 32.8611 47.3562 32.5782 47.5093 32.2641C47.6623 31.95 47.815 31.6047 47.9674 31.2281C48.1198 30.8515 48.2419 30.569 48.3334 30.3493L49.8315 27.115C50.2277 26.1421 50.5937 25.2633 50.8982 24.4789C51.1421 23.8826 51.3235 23.287 51.4736 22.6916C51.5032 22.5351 51.5941 22.2529 51.7465 21.8763C51.8989 21.4997 51.9894 21.1862 52.0181 20.9359C52.0464 20.6544 52.1357 20.2159 52.2858 19.6206C52.436 19.0253 52.5252 18.5869 52.5536 18.3053C52.7617 17.2719 52.8764 16.2706 52.8977 15.3016C53.0076 13.8316 52.8353 12.2708 52.4121 10.6188C51.8628 8.8744 51.0984 7.47593 50.1188 6.42345C49.3927 5.71212 48.7314 5.21889 48.1348 4.94376C47.9782 4.91412 47.7585 4.82262 47.5069 4.66895C47.2553 4.51528 47.0353 4.39253 46.8468 4.30071C46.5643 4.17861 46.1568 4.05779 45.5927 3.90733C45.0286 3.75687 44.6839 3.66666 44.5274 3.63702C44.4021 3.60705 44.2771 3.60834 44.1524 3.64087C44.0277 3.67341 43.934 3.67437 43.8399 3.64408C43.7459 3.6138 43.6515 3.55227 43.5568 3.45949L43.3068 3.46205C43.0884 3.49555 42.7762 3.53001 42.37 3.53419C41.9637 3.53836 41.6516 3.57282 41.4335 3.63757C40.621 3.64592 40.0908 3.74512 39.8424 3.90394L39.5924 3.90651C38.5309 4.01117 37.9075 4.17384 37.6911 4.39482C37.6914 4.42607 37.6605 4.45764 37.598 4.45828C37.1292 4.4631 36.6618 4.59291 36.1956 4.84772C36.071 4.88025 35.8529 4.945 35.5101 5.04227C35.1673 5.13955 34.9496 5.23555 34.8255 5.33058C34.7015 5.42561 34.4837 5.5216 34.1722 5.61856C33.8607 5.71551 33.6432 5.84275 33.5198 6.00028C33.2386 6.00317 32.8343 6.19484 32.3066 6.54403C32.1517 6.67063 31.903 6.79819 31.5914 6.89515C31.2799 6.99211 31.0621 7.0881 30.9069 7.18345C30.2249 7.72174 29.6656 8.04 29.2603 8.13792C29.1666 8.13889 29.1044 8.17078 29.0735 8.20235C28.7951 8.48647 28.578 8.64496 28.4533 8.6775C27.9859 8.80731 27.6132 9.0299 27.3351 9.34528C27.2417 9.37749 26.8687 9.56883 26.216 9.91931C26.1847 9.91963 26.1538 9.9512 26.1541 9.98245C26.1545 10.0137 26.1235 10.0453 26.0923 10.0456L25.7524 10.4241C25.6287 10.5504 25.4116 10.7089 25.0698 10.8999C24.7279 11.0909 24.4796 11.2497 24.3249 11.4076C24.1999 11.4089 24.0756 11.4726 23.9834 11.6298C23.8913 11.7871 23.7982 11.8505 23.7045 11.8515C23.238 12.075 22.8968 12.3286 22.681 12.612L22.5573 12.7383C22.0296 13.0875 21.6575 13.3726 21.4097 13.5939C20.7284 14.1947 20.3573 14.5735 20.2648 14.6995L20.2029 14.7626L19.0564 15.712C18.684 15.9658 18.4665 16.093 18.4356 16.1246C18.3419 16.1256 18.3109 16.1571 18.3119 16.2509C18.2198 16.4081 18.0654 16.5972 17.8486 16.7869C17.6318 16.9767 17.4772 17.1345 17.385 17.2917C17.3548 17.3858 17.2932 17.4802 17.2004 17.5749C17.1077 17.6696 16.9836 17.7646 16.8284 17.86C16.6731 17.9553 16.549 18.0503 16.4563 18.1451C15.6812 18.7468 15.1863 19.2519 14.9405 19.6607L14.7553 19.8814C14.5994 19.9142 14.321 20.1984 13.9512 20.7022C13.8587 20.8281 13.7353 20.9857 13.5498 21.1751C13.3642 21.3645 13.2408 21.522 13.1483 21.648C12.6226 22.1847 12.2518 22.5948 12.0047 22.8786C11.9113 22.9108 11.8185 23.0055 11.7263 23.1627L11.1406 23.95L10.4003 24.8952C10.3075 24.9899 10.1842 25.1474 10.0305 25.399C9.87681 25.6506 9.75342 25.8081 9.66064 25.9028C9.56818 26.0288 9.44512 26.2175 9.26019 26.4695C9.07527 26.7214 8.95221 26.9101 8.85975 27.0361C8.52083 27.5084 8.15131 28.0434 7.75119 28.6413C7.47413 29.0505 7.28953 29.3336 7.19739 29.4908C7.16711 29.5849 7.10621 29.7418 7.01472 29.9615C6.92322 30.1812 6.83108 30.3384 6.7383 30.4331C6.49185 30.7794 6.06208 31.5338 5.48024 32.6961C5.44932 32.7277 5.38778 32.8221 5.32689 32.979C5.266 33.1359 5.20479 33.2615 5.17451 33.3556C5.05208 33.6068 4.86813 33.9525 4.62231 34.3613C4.53082 34.581 4.37811 34.9263 4.16419 35.3973C3.95027 35.8683 3.79788 36.2449 3.7067 36.4958C3.6777 36.7149 3.58685 36.9971 3.43414 37.3424C3.28143 37.6878 3.18994 37.9075 3.15965 38.0015L2.61613 39.851C2.52496 40.1019 2.37418 40.6347 2.16411 41.4807C1.92858 42.8894 1.81129 43.6407 1.78069 43.7035C1.66115 44.236 1.57576 45.0494 1.49325 46.1441C1.41461 47.6137 1.42585 48.7074 1.52698 49.4252C1.79206 50.8913 1.92477 51.6399 1.92509 51.6712C2.15089 52.3564 2.40762 53.01 2.69496 53.6009C2.98326 54.2854 3.33245 54.8131 3.74254 55.1839L3.93196 55.3695C3.96288 55.3379 4.02442 55.2435 4.11655 55.0863L4.65654 52.8932C4.8695 52.3285 5.23581 51.4809 5.75579 50.3817C6.08988 49.4408 6.30316 48.9073 6.39562 48.7813C6.48808 48.6554 6.57958 48.4357 6.67011 48.1222C6.76064 47.8088 6.82089 47.5894 6.85118 47.4953L7.61857 46.1436C7.64886 46.0496 7.71007 45.9239 7.77096 45.767C7.83185 45.6102 7.89306 45.4845 7.92335 45.3904L8.29223 44.7929C8.50743 44.4469 8.78353 43.944 9.12019 43.253C9.45782 42.6558 9.73456 42.2154 9.95073 41.9632C9.98069 41.8379 10.0728 41.6807 10.2271 41.4916C10.3815 41.3025 10.4736 41.1453 10.5036 41.0199C10.655 40.5496 10.8708 40.2661 11.1199 40.1698L11.1811 40.0442C11.2735 39.9182 11.4275 39.6979 11.6431 39.3832C11.8586 39.0684 12.0119 38.7856 12.1034 38.5659C12.1959 38.4399 12.3502 38.2508 12.5351 37.9989C12.72 37.747 12.8747 37.5891 12.9675 37.4944C13.3383 37.0844 13.7703 36.5486 14.2323 35.8876C14.3247 35.7616 14.4478 35.5729 14.6327 35.321C14.8176 35.069 14.9407 34.8803 15.0332 34.7543C15.1559 34.5343 15.3109 34.4077 15.4977 34.3433C15.7464 34.2157 15.9623 33.9322 16.1143 33.5244C16.2065 33.3672 16.3605 33.1468 16.6075 32.863C16.6385 32.8315 16.7316 32.768 16.8556 32.673C16.9796 32.5779 17.0415 32.5148 17.0412 32.4836C17.0708 32.327 17.2248 32.1066 17.5035 31.8538C17.7821 31.6009 17.9358 31.3493 17.9648 31.1302L18.0579 31.0668C18.2763 31.0333 18.4306 30.8442 18.5524 30.5304C18.5515 30.4367 18.6136 30.4048 18.7386 30.4035C18.8633 30.371 18.9558 30.245 19.0473 30.0253C19.1397 29.8993 19.2637 29.8043 19.419 29.709L19.6664 29.4564C20.1916 28.8572 20.5933 28.4156 20.8716 28.1315C20.9641 28.0055 21.1187 27.8476 21.3355 27.6579C21.5524 27.4682 21.707 27.3103 21.7995 27.1844C22.3239 26.5227 22.6951 26.1439 22.9128 26.0479C23.0378 26.0466 23.0997 25.9834 23.0984 25.8584C23.4988 25.2918 23.8706 24.9755 24.1821 24.8785C24.3062 24.7835 24.3989 24.6888 24.4914 24.5628C24.5826 24.3119 24.7369 24.1228 24.9543 23.9955C24.9856 23.9952 25.0787 23.9317 25.2021 23.7742L26.0062 22.9534C26.3773 22.5746 26.6563 22.3529 26.8432 22.2885C26.8422 22.1948 26.8731 22.1632 26.9044 22.1629L27.4298 21.595L28.1118 21.0567C28.3908 20.835 28.6389 20.645 28.8251 20.5181L28.8869 20.4549C28.9169 20.3296 29.1334 20.1086 29.5055 19.8235L31.2142 18.8372C31.3076 18.8049 31.4323 18.7724 31.5569 18.7399C31.6816 18.7073 31.7753 18.7064 31.8066 18.7061C32.1503 18.7025 32.4319 18.7309 32.6509 18.7599C32.8072 18.7583 32.9325 18.7882 32.9953 18.8188C33.1219 18.9738 33.1242 19.1925 33.0336 19.506C32.9431 19.8194 32.7885 19.9773 32.57 20.0108C32.2888 20.0137 32.0092 20.1728 31.7308 20.4569C31.6999 20.4885 31.6068 20.552 31.4515 20.6473C31.2962 20.7427 31.2035 20.8374 31.1732 20.9314C31.0498 21.089 30.833 21.2787 30.5231 21.5319C30.2132 21.7851 30.0273 21.9433 29.9345 22.038C29.7174 22.1965 29.4387 22.4493 29.0676 22.8282L28.2944 23.6174L27.9854 23.9644C27.6443 24.2179 27.2113 24.6599 26.6556 25.3219C26.6559 25.3531 26.6253 25.4159 26.5322 25.4794C26.4391 25.5428 26.3772 25.606 26.3463 25.6376C26.0673 25.8592 25.8814 26.0173 25.8199 26.1117C25.6662 26.3633 25.4188 26.6159 25.0773 26.8382C24.9839 26.8704 24.8605 27.0279 24.6756 27.2798C24.5232 27.6564 24.3074 27.9399 24.0593 28.1299C23.9353 28.225 23.625 28.4469 23.0977 28.8274C23.0986 28.9211 23.0677 28.9527 23.0364 28.953C22.7922 29.518 22.4836 29.8962 22.1421 30.1185L21.8947 30.3711C21.5255 30.9374 21.3097 31.2209 21.2784 31.2212C20.6289 31.8841 20.2897 32.3252 20.2607 32.5442C20.2617 32.638 20.2308 32.6695 20.137 32.6705C19.9811 32.7033 19.7952 32.8615 19.6106 33.1447C19.426 33.4278 19.2401 33.586 19.0217 33.6195C18.9914 33.7136 18.9608 33.7764 18.9611 33.8076C18.9627 33.9639 18.8087 34.1842 18.5304 34.4684C18.1283 34.8788 17.7579 35.3201 17.4499 35.7608L17.2672 36.2314C17.2369 36.3255 17.1445 36.4515 16.9586 36.6096C16.7727 36.7678 16.6802 36.8937 16.6499 36.9878L15.7869 38.153C15.7559 38.1846 15.6944 38.279 15.6332 38.4046C15.572 38.5302 15.5105 38.6246 15.4802 38.7187L15.419 38.8443C15.4193 38.8756 15.3884 38.9071 15.3571 38.9075C15.2331 39.0025 15.0784 39.1603 14.9248 39.4119C14.7711 39.6635 14.6165 39.8214 14.4924 39.9164C14.3684 40.0114 14.2759 40.1374 14.1838 40.2946C14.0917 40.4518 13.9995 40.609 13.9077 40.7974C13.8159 40.9859 13.7547 41.1115 13.7244 41.2056C13.6319 41.3316 13.5089 41.5203 13.3552 41.7719C13.2015 42.0235 13.0788 42.2435 12.9557 42.4323C12.8326 42.6211 12.7096 42.8099 12.5862 42.9674C12.2486 43.5646 12.033 43.8794 11.9084 43.9119C11.8771 43.9122 11.8462 43.9438 11.8159 44.0379C11.8188 44.3191 11.6046 44.7588 11.1416 45.3261C10.7428 46.049 10.5285 46.4887 10.4673 46.6144C10.4061 46.74 10.314 46.8972 10.1593 47.0551C9.91191 47.3076 9.75824 47.5592 9.72956 47.8095C9.73084 47.9345 9.70056 48.0286 9.63902 48.123C9.57749 48.2173 9.51596 48.3117 9.45443 48.4061C9.39289 48.5005 9.33104 48.5636 9.30011 48.5952C8.78077 49.7569 8.35133 50.5426 8.01177 50.9523C8.01273 51.0461 7.98181 51.0776 7.95056 51.078C7.73889 51.7677 7.58714 52.2068 7.49564 52.4265C7.40447 52.6774 7.19087 53.1796 6.82392 53.9647C6.79363 54.0588 6.73306 54.2469 6.61128 54.5607C6.4895 54.8744 6.39833 55.1254 6.30619 55.2826C6.27526 55.3142 6.15476 55.7529 5.94438 56.5676C5.9157 56.8179 5.98012 57.0048 6.13765 57.1282C7.6472 58.0502 8.49605 58.5415 8.65293 58.6024C9.12391 58.8163 9.5617 58.8431 9.93508 58.683C10.3091 58.5854 10.5282 58.6144 10.5607 58.739C10.5932 58.8637 10.4383 58.9903 10.0958 59.1188C9.44185 59.3443 8.72217 59.258 7.90586 58.8913C7.21487 58.5547 6.52355 58.1868 5.80034 57.7567C5.67406 57.633 5.61189 57.6649 5.61413 57.8836C5.52264 58.1033 5.4321 58.4167 5.34286 58.8552C5.01165 60.0774 4.83894 61.5168 4.82471 63.1732L4.83049 63.7357C4.83916 64.5794 5.09975 65.608 5.581 66.8219C5.80681 67.5071 6.156 68.0348 6.62858 68.405C7.22776 68.9301 7.88783 69.2983 8.60911 69.5409ZM72.8393 15.5967L72.4991 15.9439C72.7488 15.9101 72.9369 15.9707 73.0947 16.1253C73.2526 16.2799 73.3173 16.498 73.289 16.7796C73.1711 17.4683 72.9275 18.0959 72.5586 18.6935C72.1598 19.4163 71.4513 20.4237 70.4333 21.7155C70.2175 21.9989 69.9092 22.4084 69.4768 22.9128C69.0445 23.4173 68.7668 23.7639 68.6434 23.9215L68.0561 24.5525C66.9756 25.845 66.1418 26.8223 65.5549 27.4847C65.5239 27.5162 64.8442 28.2732 63.5465 29.7242C62.1867 31.207 61.1664 32.28 60.486 32.9745L59.218 34.2689C58.6613 34.8371 58.2596 35.2788 57.9816 35.5942C57.8888 35.6889 57.5502 36.1924 56.9345 37.105L56.9352 37.1675C56.9361 37.2613 56.9052 37.2928 56.874 37.2931L56.9365 37.2925L57.0608 37.2287L58.9519 35.7405C58.9828 35.7089 59.1068 35.6139 59.293 35.4869C59.4792 35.36 59.6345 35.2647 59.7592 35.2321C60.5362 34.8179 61.127 34.5305 61.5317 34.3701C62.3087 33.9559 63.0561 33.6982 63.7742 33.6283C64.2419 33.5297 64.6169 33.5259 64.8991 33.6167C65.4954 33.8606 65.7499 34.2955 65.6629 34.9527C65.6371 35.4842 65.3317 36.1749 64.7466 37.0247C64.5308 37.3082 64.1912 37.718 63.6967 38.2543C63.2943 38.6335 62.6126 39.203 61.652 39.9942C61.5279 40.0892 60.4094 40.7257 58.2967 41.935C58.2033 41.9672 58.1102 42.0307 57.9859 42.0945C57.8615 42.1583 57.7684 42.2217 57.675 42.2539C57.4566 42.2874 57.3641 42.4134 57.3664 42.6321C57.3992 42.788 57.4334 43.069 57.4375 43.4752C57.4433 44.0376 57.4829 44.8498 57.5879 45.9425C57.5918 46.3175 57.6906 46.8165 57.8533 47.4399C58.1104 48.1248 58.6445 48.4005 59.456 48.2984C60.0484 48.1673 60.8564 47.7215 61.8802 46.9922C62.9658 46.1998 64.1427 45.1564 65.3791 43.8311C65.5331 43.6107 65.7496 43.3897 65.9973 43.1684C66.2451 42.9471 66.4925 42.6946 66.7708 42.4104C67.0492 42.1263 67.2344 41.9057 67.3578 41.7481L68.9045 40.2009C69.121 39.9799 69.2766 39.9158 69.4025 40.0083C69.3104 40.1655 69.2182 40.3227 69.0945 40.449C68.9399 40.6068 68.6925 40.8594 68.3526 41.2379C68.0127 41.6164 67.7035 41.9321 67.3939 42.2165C67.0843 42.501 66.8056 42.7539 66.5582 43.0064C66.0018 43.6059 65.1362 44.5211 63.961 45.7207C63.6208 46.068 63.0637 46.605 62.2899 47.3318C61.577 47.9016 60.925 48.3146 60.3647 48.5391C60.2407 48.6341 59.8354 48.7321 59.1489 48.8329C58.743 48.8683 58.179 48.7178 57.488 48.3812C57.0792 48.1354 56.8244 47.6692 56.7235 46.9827C56.5593 46.2031 56.4536 45.0479 56.4379 43.5167C56.4331 43.048 56.3989 42.7671 56.3358 42.7052C56.2727 42.6434 55.9914 42.6462 55.523 42.6823C55.273 42.6849 55.0227 42.6562 54.7718 42.565C54.5521 42.4735 54.3949 42.3814 54.2686 42.2577C54.142 42.1027 54.017 42.104 53.8936 42.2615C53.7702 42.4191 53.6166 42.6707 53.4638 43.016C52.6346 44.4308 52.143 45.2484 52.0202 45.4685C51.9278 45.5944 51.8666 45.7201 51.8053 45.8457C51.7441 45.9713 51.6832 46.1282 51.6224 46.2851C51.5615 46.442 51.5003 46.5676 51.47 46.6617C51.2541 46.9452 51.162 47.1024 51.1623 47.1336C50.9165 47.5424 50.5486 48.2337 50.0273 49.2079C49.9046 49.4279 49.7522 49.8045 49.6014 50.3373L48.8359 51.8765C48.5914 52.4103 48.4081 52.8185 48.286 53.101C47.8884 53.9489 47.5827 54.6083 47.4 55.079C47.3085 55.2987 47.0904 55.3634 46.7457 55.2732C46.4954 55.2445 46.4001 55.0892 46.4912 54.8383C46.5824 54.5873 46.7032 54.1798 46.854 53.647C47.0048 53.1142 47.1256 52.7067 47.2168 52.4557C47.308 52.2048 47.4597 51.7657 47.7036 51.1694C47.9494 50.7606 48.1334 50.4149 48.2245 50.164C48.2548 50.0699 48.3157 49.913 48.4069 49.6621C48.4981 49.4111 48.5586 49.223 48.5886 49.0977C48.924 48.2817 49.3525 47.4022 49.8741 46.4593L50.8251 44.7307C50.9172 44.5735 51.163 44.1647 51.5313 43.5046C51.8995 42.8446 52.2065 42.3101 52.4211 41.9017C52.452 41.8701 52.5442 41.7129 52.6978 41.4613C52.8515 41.2097 52.9742 40.9897 53.0664 40.8325C53.0661 40.8012 53.1579 40.6128 53.3734 40.298L53.4971 40.1718C53.5258 39.9214 53.617 39.6705 53.7397 39.4505C53.8625 39.2305 54.0474 38.9785 54.2632 38.6951C54.4791 38.4116 54.6334 38.2225 54.7259 38.0965C55.4939 36.8073 56.0777 35.8325 56.4771 35.1721L57.0603 34.1348L57.4601 33.5057C57.6447 33.2225 57.7674 33.0025 57.8595 32.8453C58.7819 31.367 59.4894 30.2659 60.0132 29.5417C60.3508 28.9445 60.5963 28.5044 60.75 28.2528L62.289 25.9556C62.3193 25.8616 62.4117 25.7356 62.566 25.5465C63.0892 24.7599 63.4897 24.1932 63.767 23.8153L65.8331 21.1065L66.2354 20.7273C66.4516 20.4751 66.6056 20.2547 66.6974 20.0663C66.7899 19.9403 66.9442 19.7512 67.1607 19.5302C67.3772 19.3092 67.5318 19.1514 67.6246 19.0567L68.5521 18.0783C68.6449 17.9836 68.7995 17.8258 69.0163 17.6361C69.2331 17.4463 69.3878 17.2885 69.4805 17.1938C69.728 16.9412 69.976 16.7511 70.256 16.6233C70.938 16.085 71.4972 15.7667 71.9025 15.6688C71.9962 15.6678 72.0897 15.6356 72.2143 15.6031C72.339 15.5705 72.4324 15.5383 72.4637 15.538C72.4949 15.5377 72.5574 15.537 72.6515 15.5673C72.7456 15.5976 72.8081 15.597 72.8393 15.5967ZM72.2916 17.0399L72.4176 17.1323C72.5091 16.9126 72.5078 16.7876 72.4137 16.7573C72.32 16.7583 72.1953 16.7908 72.04 16.8862C71.388 17.2992 70.83 17.7424 70.3661 18.216C70.3352 18.2475 70.2111 18.3426 69.9628 18.5014C69.7144 18.6602 69.5597 18.818 69.4676 18.9752C69.3751 19.1012 69.2205 19.259 69.004 19.48C68.7875 19.701 68.6329 19.8589 68.5404 19.9848C68.294 20.3311 67.8613 20.8043 67.2737 21.4042C67.2428 21.4357 67.15 21.5304 67.0266 21.688C66.9032 21.8455 66.8108 21.9715 66.7805 22.0655C66.7515 22.2846 66.5975 22.5049 66.3188 22.7578C66.0401 23.0107 65.8855 23.1685 65.824 23.2629C65.7012 23.4829 65.4854 23.7664 65.208 24.1443C64.9306 24.5222 64.746 24.8053 64.6539 24.9625C64.5002 25.2141 64.1919 25.6236 63.7602 26.1905C63.3285 26.7575 63.0202 27.1669 62.8669 27.4498C62.8359 27.4813 62.7741 27.5445 62.7125 27.6389C62.651 27.7333 62.5895 27.8276 62.5279 27.922C62.4664 28.0164 62.4046 28.0796 62.3736 28.1111L61.4207 29.6523C61.0818 30.1245 60.8972 30.4077 60.8669 30.5017C60.0988 31.791 59.545 32.6404 59.2055 33.0502C59.113 33.1762 58.9603 33.5215 58.747 34.055L60.3855 32.3193C61.776 30.7737 62.4866 29.9851 62.5176 29.9535L63.8474 28.596L66.4408 25.5067C67.5829 24.1199 68.3544 23.1744 68.7868 22.6699C68.9414 22.5121 69.0648 22.3546 69.1573 22.2286L71.0384 19.7716C71.7465 18.7331 72.1746 17.8224 72.2916 17.0399ZM56.9764 38.1359L56.9451 38.1362C55.9864 39.1149 55.4606 39.6515 55.3991 39.7459C55.3691 39.8712 55.277 40.0285 55.123 40.2488C54.969 40.4691 54.8765 40.5951 54.8456 40.6267C54.8147 40.6582 54.7841 40.7211 54.785 40.8148L54.9725 40.8129C55.9077 40.5845 56.6297 40.8896 57.1067 41.6972C57.1071 41.7285 57.1386 41.7594 57.1702 41.7903C57.2018 41.8213 57.233 41.8209 57.2639 41.7894C57.8554 41.5645 58.3841 41.3091 58.8499 41.023C59.3789 40.7988 59.9069 40.4809 60.4336 40.038C61.5811 39.1824 62.2944 38.6438 62.5734 38.4221C62.6971 38.2958 63.1916 37.7595 64.0257 36.8134C64.5511 36.2454 64.8256 35.5863 64.8488 34.8048C64.8778 34.5857 64.845 34.4298 64.719 34.3374C64.593 34.2449 64.3737 34.1846 64.0924 34.1875C63.9987 34.1885 63.9053 34.2207 63.8118 34.2529C62.9707 34.5116 62.3167 34.7371 61.8809 34.8978C61.7562 34.9303 61.5384 35.0263 61.2588 35.1855C60.9791 35.3446 60.7304 35.4722 60.5439 35.5678C60.2649 35.7895 60.1097 35.8848 60.0784 35.8851L58.5572 36.8696C57.9058 37.345 57.3788 37.7567 56.9764 38.1359ZM56.0804 42.1766L56.0182 42.2085C56.1106 42.0825 56.0459 41.8644 55.8243 41.5854C55.7276 41.3051 55.477 41.2452 55.0411 41.406C54.7928 41.5648 54.7013 41.7845 54.7351 42.0341C54.8311 42.2519 55.0514 42.4059 55.3961 42.4961C55.427 42.4645 55.5514 42.4008 55.7382 42.3363C55.9251 42.2719 56.0494 42.2081 56.0804 42.1766ZM65.5587 49.142L65.5903 49.1729C65.1831 49.0834 64.9624 48.8981 64.9283 48.6172C64.8291 48.087 64.794 47.7123 64.8226 47.462C64.9093 46.7736 65.0279 46.1473 65.1784 45.5832C65.2086 45.4892 65.392 45.081 65.7283 44.3588L66.8001 42.2226C67.4445 41.0597 68.0911 40.1155 68.7711 39.3897C68.9876 39.1687 69.3929 39.0708 69.9866 39.0647C70.1119 39.0947 70.3613 39.0296 70.7343 38.8383C71.5719 38.2359 72.2236 37.7917 72.6895 37.5056C73.7751 36.7131 74.6131 36.142 75.172 35.7925C75.5135 35.5702 75.6987 35.3496 75.7274 35.0992C75.7252 34.8805 75.8176 34.7546 75.9735 34.7217C76.3788 34.6238 76.7222 34.589 77.0034 34.5861C77.1284 34.5848 77.1922 34.7092 77.1945 34.9279C77.0456 35.6482 76.7412 36.4326 76.3124 37.2809C76.1896 37.5009 76.0057 37.8465 75.7605 38.3178C75.5153 38.7891 75.362 39.072 75.2695 39.1979C74.747 40.0471 74.3472 40.6762 74.0701 41.0853C73.9776 41.2113 73.6687 41.5583 73.112 42.1265L72.9284 42.5034L72.8671 42.629L72.8059 42.7547C72.6519 42.975 72.6851 43.1622 72.9367 43.3159C73.628 43.6838 74.2852 43.7708 74.9086 43.6081C75.4698 43.4773 75.999 43.2844 76.4965 43.0293C77.6778 42.4233 78.5479 41.9456 79.1069 41.5961C80.007 40.9931 80.7196 40.392 81.2763 39.8237C81.4309 39.6659 81.5549 39.5708 81.6483 39.5386C81.6793 39.5071 81.7418 39.5064 81.8049 39.5683C81.868 39.6301 81.8999 39.6923 81.869 39.7239C81.7769 39.8811 81.7153 39.9755 81.6532 40.0074L80.9112 40.7963C80.3848 41.2705 79.9821 41.6184 79.7031 41.84C79.238 42.1885 78.4928 42.665 77.4677 43.2693C76.9081 43.5563 76.0673 43.8462 74.9762 44.1074C74.5084 44.206 73.8207 44.1818 72.9128 44.0349L72.5678 43.9134L72.3791 43.7904C72.2531 43.6979 72.159 43.6676 72.1278 43.6679C72.0031 43.7005 71.8797 43.858 71.7573 44.1093L70.1223 46.1887C69.1037 47.418 68.3305 48.2072 67.8028 48.5564C67.0896 49.095 66.4353 49.2893 65.8712 49.1388L65.5587 49.142ZM71.9207 41.7637L71.8266 41.7334C71.9226 41.9512 72.0164 41.9503 72.1079 41.7306C72.3537 41.3218 72.5692 41.007 72.7545 40.7864C73.094 40.3766 73.5244 39.6846 74.0457 38.7105C74.3823 38.0195 74.6584 37.5166 74.8737 37.1706C74.8733 37.1394 74.9039 37.0766 74.9342 36.9825C74.9027 36.9516 74.8086 36.9213 74.6836 36.9226C74.3427 37.2073 73.9703 37.4612 73.566 37.6528C73.0074 38.0336 72.1379 38.5738 70.9576 39.2735C70.8338 39.3998 70.8039 39.5251 70.8364 39.6498C70.9318 39.805 71.059 40.0225 71.1872 40.3337C71.3154 40.6449 71.4427 40.8623 71.5377 40.9864C71.6343 41.2666 71.7619 41.5153 71.9207 41.7637ZM66.4572 48.3827L66.3 48.2906C66.3937 48.2896 66.4243 48.2268 66.4234 48.1331C66.9517 47.8464 67.3857 47.4981 67.7252 47.0884C67.9414 46.8361 68.2503 46.4892 68.683 46.016C69.1156 45.5428 69.4246 45.1958 69.6095 44.9439C69.7944 44.692 70.0409 44.3457 70.3492 43.9362C70.6575 43.5268 70.8734 43.2433 70.9967 43.0858C71.1517 42.9592 71.1501 42.803 70.9919 42.6171C70.7378 42.2134 70.5467 41.8716 70.4192 41.6229C70.0687 40.9702 69.8767 40.5347 69.8432 40.3163C69.6822 39.8491 69.4315 39.7892 69.0913 40.1365L68.9679 40.294C68.321 41.2069 67.7982 42.0249 67.3993 42.7478C66.8468 43.7222 66.4199 44.7579 66.0874 45.8551C66.0584 46.0742 65.9679 46.3877 65.8474 46.8264C65.7269 47.2652 65.6364 47.5786 65.6074 47.7977C65.6454 48.4536 65.9285 48.6382 66.4572 48.3827ZM76.9231 48.0564L76.7978 48.0264C76.6725 47.9965 76.5156 47.9356 76.3275 47.875C76.1394 47.8144 75.9828 47.7848 75.8578 47.7861C75.6075 47.7574 75.4809 47.6024 75.478 47.3212C75.5959 46.6325 75.6858 46.2565 75.7161 46.1624C75.8086 46.0365 75.9001 45.8168 75.9909 45.5346C76.0818 45.2524 76.1733 45.0327 76.2657 44.9067C76.3582 44.7808 76.7274 44.2145 77.3737 43.239C77.497 43.0815 77.682 42.8296 77.9287 42.5145C78.1755 42.1995 78.3604 41.9475 78.4838 41.79C79.0714 41.1902 79.5044 40.7482 79.7515 40.4644L79.8134 40.4013C79.9693 40.3684 80.1246 40.2731 80.2795 40.1465C80.4345 40.0199 80.5891 39.862 80.7434 39.6729C80.8977 39.4838 81.0215 39.3576 81.1142 39.2629C81.1455 39.2625 81.1764 39.231 81.2067 39.1369L81.331 39.0731C81.487 39.0403 81.6416 38.8824 81.795 38.5996C81.7946 38.5683 81.8256 38.5368 81.8877 38.5049L81.9489 38.3792C82.198 38.2829 82.5082 38.061 82.88 37.7446C83.2517 37.4283 83.5307 37.2067 83.686 37.1113C84.2759 36.7302 84.6802 36.5386 84.8989 36.5363C85.0239 36.535 85.0861 36.5031 85.0851 36.4094C85.3325 36.1568 85.6118 35.9664 85.9227 35.807C86.0474 35.7745 86.2964 35.6781 86.6698 35.5181C87.0432 35.358 87.3547 35.261 87.5731 35.2275C88.3843 35.0942 88.8214 35.0584 88.853 35.0893L89.228 35.0855L89.6655 35.081C90.0739 35.2956 90.3252 35.418 90.388 35.4486C90.4827 35.5414 90.5162 35.7598 90.5198 36.1035C90.522 36.3223 90.5233 36.4472 90.5552 36.5094C90.5871 36.5716 90.7121 36.5703 90.9305 36.5368C91.1489 36.5033 91.337 36.5639 91.4949 36.7185C91.6527 36.8732 91.6859 37.0603 91.5944 37.28C91.5957 37.405 91.5039 37.5935 91.3505 37.8763C90.5815 39.0718 89.9968 39.9528 89.5963 40.5195C89.5039 40.6454 89.1057 41.4308 88.4018 42.8756C88.1579 43.4719 87.9765 44.0676 87.8576 44.6626C87.7087 45.3829 87.6839 46.0082 87.8144 46.5381C87.9435 46.9431 88.2264 47.0964 88.6629 46.9982C88.9432 46.9015 89.4402 46.6152 90.1541 46.1391C90.7124 45.727 91.5491 45.0309 92.6328 44.051C93.1914 43.6702 93.6566 43.3217 94.0281 42.9741C94.5538 42.4374 94.9562 42.0582 95.2352 41.8366L98.0212 39.2453C98.0521 39.2138 98.1455 39.1815 98.2702 39.149L98.5196 39.0839C98.5508 39.0836 98.6452 39.1452 98.7715 39.2689C98.7731 39.4251 98.7428 39.5192 98.6491 39.5201C98.4316 39.6474 98.1835 39.8374 97.8739 40.1219C97.5644 40.4063 97.2551 40.722 96.9149 41.0693L96.2345 41.7638L94.8408 42.997C94.6237 43.1555 94.345 43.4083 93.9739 43.7872L93.2007 44.5764C93.0458 44.703 92.7049 44.9878 92.147 45.431C91.589 45.8743 91.155 46.2225 90.8451 46.4757C90.2562 46.9505 89.5723 47.3013 88.7933 47.5281C88.2634 47.6586 87.8256 47.6318 87.449 47.4794C87.0724 47.327 86.7873 46.9549 86.6253 46.3941C86.4945 45.8329 86.4569 45.2083 86.5439 44.5511C86.5671 43.7695 86.7765 42.8611 87.1409 41.826C87.1699 41.607 87.3522 41.1051 87.6567 40.3207C87.688 40.3203 87.7189 40.2888 87.7186 40.2575L87.7173 40.1325C87.5923 40.1338 87.4989 40.166 87.4679 40.1976C86.6329 41.05 85.5798 41.9671 84.3085 42.949C84.2158 43.0437 84.123 43.1384 84.0305 43.2643C83.9381 43.3903 83.8453 43.485 83.7525 43.5797C83.6597 43.6744 83.5669 43.7691 83.4741 43.8638C83.3504 43.9901 83.1024 44.1802 82.7615 44.4649L81.3048 45.6362C80.2191 46.4287 79.5986 46.8726 79.4433 46.9679C79.3496 46.9689 79.2562 47.0011 79.1634 47.0958C79.0706 47.1905 78.9775 47.254 78.8841 47.2862C78.3564 47.6354 77.7649 47.8602 77.11 47.992L77.0481 48.0551L76.9231 48.0564ZM77.102 47.2108L78.502 46.6026C80.2401 45.4284 81.3879 44.6041 81.9456 44.1296C82.0693 44.0033 82.3173 43.8132 82.6897 43.5594C83.0621 43.3055 83.3411 43.0839 83.4958 42.9261C83.6507 42.7995 83.8054 42.6416 83.96 42.4838C84.1146 42.3259 84.3002 42.1365 84.4858 41.9471C84.6713 41.7577 84.826 41.5998 84.95 41.5048L86.591 40.0191C86.9312 39.6718 87.1165 39.4512 87.178 39.3568C87.4232 38.8855 87.6387 38.5708 87.7937 38.4442L87.9792 38.2547C88.0714 38.0975 88.1941 37.8775 88.3478 37.6259C88.3475 37.5947 88.4696 37.3121 88.6829 36.7787L88.6204 36.7793L88.4947 36.7181L87.9648 36.8486C87.8714 36.8808 87.747 36.9446 87.5917 37.0399C87.4365 37.1353 87.3121 37.199 87.2187 37.2313C86.69 37.4867 86.3173 37.7093 86.0692 37.8994C85.5415 38.2485 85.1688 38.4711 84.9201 38.5987C84.7655 38.7565 84.4552 38.9785 84.0207 39.2642C83.7423 39.5484 83.5255 39.7381 83.3702 39.8334C83.2143 39.8663 82.9041 40.0882 82.4395 40.4993C81.7582 41.1001 81.263 41.5739 80.9853 41.9206C80.5207 42.3316 79.871 42.9633 79.0359 43.8157C79.005 43.8473 78.9431 43.9104 78.8507 44.0364C78.7582 44.1623 78.6967 44.2567 78.6664 44.3508C78.5749 44.5705 78.39 44.8224 78.112 45.1378C77.8339 45.4531 77.6796 45.6422 77.6493 45.7363C77.2505 46.4592 77.0363 46.8989 77.0375 47.0239C77.0385 47.1177 77.0704 47.1798 77.102 47.2108ZM113.147 39.2461L113.055 39.4033C113.179 39.277 113.366 39.2439 113.585 39.3354L113.586 39.3979C112.63 40.5952 112.074 41.2572 111.919 41.4151C110.653 42.8969 109.695 43.9381 109.045 44.5698C108.087 45.5485 107.126 46.3084 106.162 46.8496C105.322 47.2332 104.574 47.3972 103.917 47.3102C103.009 47.1945 102.504 46.6684 102.369 45.7322C102.368 45.6072 102.366 45.4197 102.332 45.1701C102.299 44.9204 102.297 44.7329 102.295 44.6079C102.29 44.1392 102.408 43.4192 102.648 42.4792C102.8 42.0089 103.012 41.3191 103.283 40.4101C103.313 40.2535 103.465 39.8144 103.739 39.1241C104.012 38.2775 104.129 37.5262 104.091 36.8703C104.09 36.7453 104.025 36.5897 103.93 36.4344C103.897 36.2785 103.772 36.2486 103.554 36.3446C102.713 36.6345 102.03 37.0165 101.535 37.4904C101.131 37.7758 100.759 38.0921 100.451 38.4391C100.296 38.5969 100.08 38.8491 99.8024 39.227C99.525 39.6049 99.3401 39.8568 99.2163 39.9831C98.9702 40.3606 98.8162 40.581 98.7544 40.6441C98.476 40.9282 98.1371 41.4005 97.7061 42.03C97.275 42.6594 96.9667 43.0689 96.7502 43.2899C96.4728 43.6677 96.0411 44.2347 95.4867 45.0217C94.9322 45.8087 94.5624 46.3125 94.3462 46.5647C94.0998 46.911 93.9464 47.1939 93.8549 47.4136C93.7315 47.5711 93.5444 47.6043 93.2622 47.5134C93.105 47.4213 93.0721 47.2654 93.1633 47.0144C93.1936 46.9204 93.2548 46.7947 93.3154 46.6066C93.3759 46.4185 93.4371 46.2928 93.4674 46.1987C94.2345 44.8158 94.8179 43.8097 95.249 43.1803C95.4951 42.8027 96.1726 41.827 97.2506 40.2846C97.3434 40.1898 97.4355 40.0326 97.5273 39.8442C97.6191 39.6557 97.7113 39.4985 97.8041 39.4038L98.9445 37.8608C99.0367 37.7036 99.2213 37.4204 99.5299 37.0422C99.8385 36.664 100.054 36.3493 100.208 36.0977C100.3 36.003 100.454 35.7826 100.701 35.4363C100.947 35.09 101.163 34.8065 101.318 34.6175C101.718 34.0821 102.058 33.7035 102.337 33.4819C102.367 33.3878 102.554 33.3234 102.866 33.2577C103.178 33.192 103.397 33.1898 103.523 33.2822C103.617 33.375 103.649 33.4372 103.65 33.4997L103.468 34.0641C103.345 34.1903 102.913 34.8198 102.206 35.9209C102.237 35.9206 102.3 35.9199 102.393 35.8877C102.487 35.8555 102.549 35.8236 102.58 35.792C103.108 35.5053 103.701 35.4055 104.358 35.4925C105.14 35.5782 105.488 35.9809 105.402 36.7006C105.411 37.638 105.203 38.609 104.744 39.645C104.652 39.8022 104.561 40.0532 104.471 40.3666C104.38 40.68 104.32 40.8994 104.29 41.0247C104.016 41.7463 103.773 42.4051 103.591 43.0008C103.38 43.7217 103.262 44.4105 103.237 45.0358C103.209 45.3173 103.275 45.6917 103.436 46.1275C103.692 46.6874 104.131 46.9017 104.724 46.7706C105.379 46.6388 106.063 46.288 106.807 45.7179C107.459 45.3361 108.729 44.1668 110.615 42.2098C110.831 41.9888 111.264 41.4843 111.943 40.6648C112.622 39.8453 113.023 39.3724 113.147 39.2461ZM108.734 47.7294L108.609 47.6995C108.483 47.6695 108.326 47.6086 108.138 47.548C107.95 47.4875 107.794 47.4578 107.669 47.4591C107.418 47.4304 107.292 47.2755 107.289 46.9942C107.407 46.3055 107.497 45.9295 107.527 45.8355C107.619 45.7095 107.711 45.4898 107.802 45.2076C107.893 44.9254 107.984 44.7057 108.077 44.5798C108.169 44.4538 108.538 43.8875 109.184 42.912C109.308 42.7545 109.493 42.5026 109.74 42.1875C109.986 41.8725 110.171 41.6206 110.295 41.463C110.882 40.8632 111.315 40.4212 111.562 40.1374L111.624 40.0743C111.78 40.0415 111.935 39.9461 112.09 39.8195C112.245 39.6929 112.4 39.5351 112.554 39.346C112.709 39.1569 112.832 39.0306 112.925 38.9359C112.956 38.9356 112.987 38.904 113.018 38.8099L113.142 38.7461C113.298 38.7133 113.452 38.5554 113.606 38.2726C113.605 38.2413 113.636 38.2098 113.699 38.1779L113.76 38.0522C114.009 37.9559 114.319 37.734 114.691 37.4176C115.063 37.1013 115.342 36.8797 115.497 36.7843C116.087 36.4032 116.491 36.2116 116.71 36.2093C116.835 36.208 116.897 36.1762 116.896 36.0824C117.143 35.8299 117.423 35.6395 117.734 35.48C117.858 35.4475 118.107 35.3512 118.481 35.1911C118.854 35.031 119.166 34.934 119.384 34.9005C120.195 34.7672 120.632 34.7314 120.664 34.7624L121.039 34.7585L121.476 34.754C121.885 34.9686 122.136 35.091 122.199 35.1216C122.294 35.2144 122.327 35.4328 122.331 35.7765C122.333 35.9953 122.334 36.1203 122.366 36.1824C122.398 36.2446 122.523 36.2433 122.741 36.2098C122.96 36.1763 123.148 36.2369 123.306 36.3915C123.464 36.5462 123.497 36.7333 123.405 36.9531C123.407 37.078 123.315 37.2665 123.161 37.5493C122.392 38.7448 121.808 39.6259 121.407 40.1925C121.315 40.3185 120.917 41.1039 120.213 42.5487C119.969 43.145 119.787 43.7406 119.668 44.3356C119.52 45.0559 119.495 45.6812 119.625 46.2111C119.754 46.6161 120.037 46.7694 120.474 46.6712C120.754 46.5746 121.251 46.2882 121.965 45.8121C122.523 45.4001 123.36 44.7039 124.444 43.724C125.002 43.3432 125.467 42.9947 125.839 42.6471C126.365 42.1104 126.767 41.7313 127.046 41.5096L129.832 38.9183C129.863 38.8868 129.956 38.8546 130.081 38.822L130.33 38.757C130.362 38.7566 130.456 38.8182 130.582 38.9419C130.584 39.0981 130.554 39.1922 130.46 39.1932C130.242 39.3204 129.994 39.5105 129.685 39.7949C129.375 40.0794 129.066 40.3951 128.726 40.7423L128.045 41.4368L126.652 42.67C126.435 42.8285 126.156 43.0814 125.785 43.4602L125.012 44.2494C124.857 44.376 124.516 44.6608 123.958 45.1041C123.4 45.5473 122.966 45.8955 122.656 46.1487C122.067 46.6236 121.383 46.9744 120.604 47.2011C120.074 47.3316 119.636 47.3048 119.26 47.1524C118.883 47.0001 118.598 46.628 118.436 46.0671C118.305 45.5059 118.268 44.8813 118.355 44.2241C118.378 43.4426 118.587 42.5341 118.952 41.4991C118.981 41.28 119.163 40.7781 119.468 39.9937C119.499 39.9934 119.53 39.9618 119.529 39.9305L119.528 39.8056C119.403 39.8068 119.31 39.839 119.279 39.8706C118.444 40.723 117.391 41.6401 116.119 42.622C116.027 42.7167 115.934 42.8114 115.841 42.9374C115.749 43.0633 115.656 43.158 115.563 43.2527C115.471 43.3474 115.378 43.4422 115.285 43.5369C115.161 43.6631 114.913 43.8532 114.572 44.138L113.116 45.3093C112.03 46.1017 111.409 46.5456 111.254 46.641C111.16 46.6419 111.067 46.6741 110.974 46.7688C110.881 46.8635 110.788 46.927 110.695 46.9592C110.167 47.3084 109.576 47.5333 108.921 47.665L108.859 47.7281L108.734 47.7294ZM108.913 46.8838L110.313 46.2756C112.051 45.1014 113.199 44.2771 113.756 43.8026C113.88 43.6763 114.128 43.4862 114.501 43.2324C114.873 42.9786 115.152 42.7569 115.307 42.5991C115.462 42.4725 115.616 42.3146 115.771 42.1568C115.925 41.9989 116.111 41.8095 116.297 41.6201C116.482 41.4307 116.637 41.2728 116.761 41.1778L118.402 39.6921C118.742 39.3449 118.927 39.1242 118.989 39.0298C119.234 38.5585 119.45 38.2438 119.604 38.1172L119.79 37.9278C119.882 37.7706 120.005 37.5505 120.159 37.2989C120.158 37.2677 120.28 36.9852 120.494 36.4517L120.431 36.4523L120.306 36.3911L119.776 36.5216C119.682 36.5538 119.558 36.6176 119.403 36.7129C119.247 36.8083 119.123 36.8721 119.029 36.9043C118.501 37.1597 118.128 37.3823 117.88 37.5724C117.352 37.9216 116.98 38.1442 116.731 38.2717C116.576 38.4296 116.266 38.6515 115.831 38.9373C115.553 39.2214 115.336 39.4111 115.181 39.5065C115.025 39.5393 114.715 39.7613 114.25 40.1723C113.569 40.7731 113.074 41.247 112.796 41.5936C112.332 42.0046 111.682 42.6363 110.847 43.4887C110.816 43.5203 110.754 43.5834 110.661 43.7094C110.569 43.8353 110.508 43.9297 110.477 44.0238C110.386 44.2435 110.201 44.4954 109.923 44.8108C109.645 45.1262 109.49 45.3153 109.46 45.4093C109.061 46.1322 108.847 46.5719 108.848 46.6969C108.849 46.7907 108.881 46.8529 108.913 46.8838ZM197.897 57.0635L197.437 57.9432C197.716 57.7216 197.965 57.5628 198.151 57.4671C198.338 57.3715 198.524 57.2758 198.711 57.2114C198.898 57.1469 199.023 57.1769 199.056 57.3016C199.088 57.4262 199.091 57.645 199.063 57.989C198.815 58.1478 198.597 58.2751 198.442 58.3704C198.1 58.5302 197.603 58.8478 196.92 59.2924C196.826 59.2933 196.733 59.3256 196.64 59.4203C196.237 59.7682 195.336 60.215 193.935 60.7919C193.126 61.144 192.347 61.3395 191.597 61.3784C190.38 61.4847 189.377 61.1825 188.619 60.5028C188.021 60.0401 187.671 59.4499 187.57 58.7322C187.57 58.701 187.504 58.4204 187.374 57.9217C187.244 57.423 187.178 57.0799 187.176 56.8612C187.165 55.7987 187.19 55.1734 187.219 54.9544C187.217 54.8294 187.246 54.5791 187.274 54.235C187.301 53.891 187.33 53.6406 187.329 53.5157C187.358 53.2966 187.417 53.0147 187.476 52.6703C187.535 52.326 187.564 52.0757 187.562 51.9194C187.707 50.8241 187.855 49.9788 187.974 49.4151C188.003 49.196 188.063 48.9141 188.153 48.5382C188.243 48.1622 188.303 47.9116 188.332 47.755C188.48 46.9097 188.63 46.2832 188.782 45.8753L188.777 45.4378L188.774 45.0941C188.894 44.6241 188.854 43.812 188.686 42.6574C188.684 42.4386 188.588 42.2521 188.367 42.0669C188.147 41.8816 187.927 41.8214 187.678 41.8552C187.553 41.8877 187.366 41.9522 187.117 42.0485C186.868 42.1448 186.681 42.178 186.556 42.1792C186.4 42.1809 186.15 42.2459 185.84 42.4054C185.529 42.5648 185.28 42.6611 185.061 42.6946L184.284 43.0776L183.009 43.7158C182.854 43.8111 182.636 43.9384 182.388 44.1284C182.295 44.1606 181.985 44.3826 181.458 44.8255C180.931 45.2685 180.497 45.5542 180.154 45.6827L179.783 46.0616C179.752 46.0619 179.69 46.0938 179.597 46.1885L178.574 46.9803C178.542 46.9806 178.512 47.0122 178.481 47.0438L178.357 47.17C178.014 47.2673 177.766 47.4261 177.612 47.6777C177.581 47.7093 177.457 47.8043 177.24 47.9316L175.846 49.1647L175.135 49.8908L174.328 50.4616C173.987 50.7464 173.46 51.1581 172.747 51.6967C172.747 51.7279 172.717 51.7908 172.624 51.8855C172.625 51.9792 172.594 52.042 172.563 52.0736C172.47 52.1683 172.378 52.2943 172.286 52.4515C172.194 52.6087 172.101 52.7346 172.008 52.8293C171.916 52.924 171.791 52.9566 171.666 52.9579L171.48 53.1473C171.482 53.3035 171.328 53.4926 171.017 53.6833C170.769 53.8109 170.583 54.0315 170.461 54.3141C170.369 54.44 170.183 54.5982 169.903 54.7573C169.623 54.8852 169.469 55.0743 169.44 55.2934L169.254 55.4828C169.131 55.6091 169.038 55.7038 169.008 55.7978L168.884 55.9241C168.79 55.9563 168.666 56.0514 168.512 56.2405C168.358 56.4295 168.234 56.5246 168.14 56.5568L167.184 57.7229C167.184 57.8167 167.154 57.8482 167.06 57.8492C166.78 58.0083 166.471 58.3553 166.133 58.8588C165.794 59.3623 165.578 59.6458 165.485 59.7405C165.454 59.7721 165.362 59.8668 165.238 59.9931C165.114 60.1193 165.022 60.214 164.928 60.2463C164.773 60.3728 164.588 60.5623 164.371 60.8145C164.155 61.0667 164.032 61.2243 164.002 61.3183C163.878 61.4446 163.724 61.6337 163.539 61.9169C163.354 62.2 163.2 62.3891 163.076 62.5154C162.983 62.5476 162.89 62.6111 162.797 62.7058C162.551 63.0521 162.397 63.3037 162.305 63.4921C161.936 64.0897 161.658 64.4363 161.472 64.532L160.853 65.1634C160.699 65.3212 160.575 65.4163 160.512 65.4169L159.229 65.2426C159.135 65.2123 159.071 65.088 159.038 64.9008C159.005 64.7136 159.035 64.5883 159.128 64.4936C159.467 64.0838 159.714 63.7688 159.868 63.5484L160.237 62.9821C160.33 62.8562 160.421 62.6677 160.544 62.4164C160.666 62.1652 160.789 61.9451 160.912 61.7564C161.035 61.5676 161.19 61.3785 161.344 61.1894C161.374 61.0953 161.558 60.7497 161.895 60.1212C161.926 60.0271 162.233 59.4927 162.785 58.4869C163.46 57.3237 163.86 56.6633 163.983 56.5058L164.72 55.2169C164.844 55.0906 164.998 54.8702 165.182 54.5558C165.366 54.2414 165.489 54.0214 165.582 53.8954C165.704 53.6442 165.919 53.2982 166.227 52.8575C166.535 52.4168 166.75 52.0708 166.873 51.7883C166.996 51.6308 167.15 51.4104 167.303 51.1276C167.457 50.8448 167.579 50.6247 167.671 50.4675C168.257 49.6177 168.688 48.9883 168.933 48.5795C168.964 48.4854 169.025 48.3285 169.116 48.1088C169.208 47.8891 169.3 47.7319 169.392 47.6372C169.64 47.4159 170.04 46.818 170.593 45.8435C170.838 45.3722 171.115 44.9631 171.424 44.6162C171.516 44.459 171.854 43.8929 172.438 42.9494L173.023 42.0371L173.392 41.4708L174.099 40.3697C174.468 39.7721 174.806 39.2061 175.082 38.7032C175.606 38.0103 175.976 37.4752 176.19 37.0668L177.512 34.8968C177.542 34.7715 177.634 34.6143 177.788 34.4252L178.557 33.2297C178.803 32.8209 179.172 32.2234 179.695 31.4367C179.726 31.3426 179.818 31.1854 179.94 30.9654C180.063 30.7454 180.155 30.5569 180.185 30.4004C180.338 30.1488 180.554 29.8653 180.832 29.5187C181.078 29.1411 181.232 28.952 181.263 28.9204L181.325 28.8573C181.323 28.7011 181.353 28.5445 181.414 28.4189C181.476 28.2932 181.599 28.1357 181.753 27.9466C181.908 27.7575 182 27.6316 182.03 27.5375C182.183 27.1922 182.306 26.9721 182.398 26.8462C182.643 26.3749 182.951 25.8717 183.289 25.3682L183.413 25.2419C183.38 25.086 183.44 24.8666 183.594 24.615C183.748 24.3634 183.84 24.2062 183.87 24.1121C184.022 23.7043 184.268 23.3268 184.578 23.0111C184.671 23.0101 184.702 22.9785 184.701 22.8848C184.79 22.4151 185.004 21.9129 185.374 21.4091C185.467 21.3143 185.527 21.1575 185.557 20.9696C185.586 20.7818 185.616 20.6565 185.647 20.625C185.677 20.4996 185.769 20.3424 185.923 20.1221C186.077 19.9017 186.169 19.7133 186.198 19.5567L186.442 18.9292C186.534 18.772 186.596 18.6776 186.627 18.646C186.78 18.3944 186.872 18.206 186.902 18.0494C186.932 17.9554 186.993 17.7985 187.053 17.5791C187.113 17.3597 187.174 17.2028 187.204 17.0775C187.416 16.3878 187.567 15.8862 187.689 15.5724C187.842 15.2896 187.992 14.6318 188.137 13.599C188.258 13.129 188.221 12.6293 187.997 12.1003C187.868 11.7267 187.584 11.4171 187.113 11.2031C186.423 10.9602 185.486 11.0324 184.302 11.4195L183.585 11.6144C183.554 11.6147 183.492 11.6466 183.399 11.6788L183.274 11.6801C183.119 11.8067 182.87 11.9343 182.528 12.0628C182.185 12.1913 181.967 12.2873 181.843 12.3199C181.687 12.4152 181.407 12.5431 180.972 12.7038C180.536 12.8646 180.225 13.024 180.008 13.1825C179.977 13.2141 179.573 13.437 178.795 13.82L178.671 13.8838L176.001 15.5676C175.969 15.5679 175.876 15.6314 175.721 15.758C175.566 15.8846 175.442 15.9796 175.35 16.0743C175.256 16.0753 175.225 16.1068 175.225 16.1381C175.103 16.3581 174.668 16.6751 173.891 17.0893C173.767 17.1219 173.611 17.2172 173.426 17.4066C173.24 17.5961 173.116 17.6911 173.023 17.7233C172.061 18.4207 171.472 18.8643 171.255 19.0228L170.667 19.5914C170.418 19.7189 170.263 19.8143 170.232 19.8771C169.985 20.1297 169.768 20.3194 169.582 20.4463L168.653 21.2997C168.405 21.4585 168.033 21.7436 167.505 22.1552C166.855 22.6932 166.514 22.978 166.483 23.0096C166.452 23.0411 166.39 23.073 166.328 23.1049C166.265 23.1368 166.203 23.1687 166.172 23.2003C165.925 23.4528 165.708 23.6113 165.521 23.707L164.964 24.244C164.841 24.3703 164.655 24.5597 164.408 24.8122C164.16 25.0648 163.975 25.2542 163.851 25.3805C163.325 25.9172 162.954 26.296 162.706 26.5173L161.902 27.2756C161.809 27.3703 161.624 27.591 161.315 27.9692C161.006 28.3474 160.759 28.5999 160.542 28.7584L159.521 29.8002C159.398 29.9577 159.182 30.21 158.873 30.5569C158.564 30.9039 158.316 31.1564 158.162 31.3143L157.326 32.1042C157.203 32.2617 157.017 32.4823 156.77 32.7349C156.122 33.5541 155.69 34.0898 155.474 34.3421C154.701 35.1313 154.144 35.7308 153.805 36.1406C153.805 36.1718 153.713 36.2978 153.558 36.4869C153.404 36.676 153.281 36.8335 153.188 36.9594L152.046 38.315L151.274 39.2917C151.244 39.3233 151.182 39.3864 151.12 39.4808C151.059 39.5752 150.997 39.6384 150.966 39.6699C150.842 39.7962 150.688 40.0165 150.504 40.331C150.32 40.6454 150.197 40.8341 150.104 40.9288C149.98 41.0551 149.794 41.2445 149.547 41.5283C149.3 41.8122 149.115 42.0016 148.991 42.1278C148.898 42.2226 148.837 42.3169 148.806 42.411C148.407 43.1026 147.699 44.11 146.681 45.4018L145.726 46.7554C145.572 46.9757 145.325 47.2908 144.986 47.7318C144.647 48.1728 144.4 48.5191 144.247 48.7707L143.354 50.1237C143.232 50.375 143.078 50.5953 142.923 50.7844C142.677 51.1307 142.523 51.3823 142.494 51.5389C142.463 51.6329 142.371 51.7589 142.217 51.948C142.062 52.1371 141.969 52.2318 141.939 52.2634C141.723 52.5469 141.415 53.05 141.016 53.7417L140.307 54.6865C140.216 54.9062 140.124 55.0634 140.031 55.1581L138.893 56.9512C138.8 57.0459 138.739 57.1715 138.678 57.3596C138.618 57.5478 138.556 57.6422 138.525 57.6737C138.279 58.02 138.094 58.272 138.002 58.4292L137.663 58.9327L137.325 59.4362L136.555 60.6004C136.463 60.7263 136.34 60.9151 136.186 61.1667C136.032 61.4183 135.941 61.6068 135.911 61.7321C135.88 61.8261 135.758 62.0462 135.543 62.4234C135.328 62.8006 135.174 63.0522 135.051 63.2097C135.02 63.2413 134.958 63.3357 134.897 63.4613C134.836 63.587 134.774 63.6814 134.743 63.7129L133.609 65.8497C133.517 65.9757 133.393 66.1644 133.24 66.416C133.086 66.6676 132.963 66.8564 132.871 66.9824L132.871 67.0448C132.78 67.2958 132.596 67.6415 132.319 68.0818C132.043 68.5222 131.858 68.8366 131.767 69.0563C131.675 69.276 131.522 69.5276 131.306 69.8423C131.091 70.1571 130.968 70.3458 130.937 70.4399L130.447 71.4137C130.355 71.5397 130.232 71.7285 130.078 71.9801C129.924 72.2317 129.833 72.4201 129.803 72.5454L129.066 73.8968C128.821 74.3056 128.636 74.5888 128.481 74.7466L128.42 74.8098C128.327 74.9045 128.108 74.938 127.764 74.9103C127.42 74.8825 127.201 74.8223 127.106 74.7295C126.98 74.6058 126.946 74.3874 127.037 74.1052C127.189 73.6973 127.495 73.0379 127.924 72.1585L128.107 71.7816C128.107 71.7503 128.106 71.6878 128.137 71.5938C128.167 71.4997 128.166 71.4372 128.166 71.4059C128.686 70.3068 129.052 69.4592 129.265 68.8945C129.785 67.7954 130.182 66.885 130.456 66.1946L130.943 64.9396C131.187 64.312 131.37 63.8414 131.492 63.5588C131.614 63.2763 131.828 62.8678 132.104 62.365C132.38 61.8621 132.564 61.454 132.686 61.1402C132.716 61.0149 132.807 60.8264 132.93 60.5752C133.052 60.3239 133.144 60.1354 133.236 60.0095L133.483 59.6319C133.482 59.6007 133.543 59.4438 133.666 59.1925C133.788 58.9412 133.88 58.7215 133.909 58.565L134.308 57.8108L134.858 56.6489C134.858 56.6176 134.889 56.5548 134.95 56.4604C135.012 56.366 135.073 56.3029 135.104 56.2401C135.135 56.1773 135.196 56.0516 135.257 55.8947C135.318 55.7379 135.379 55.6435 135.41 55.6119L135.808 54.8265L136.544 53.4751L136.821 53.0348C136.821 53.0035 136.851 52.9094 136.944 52.7835C137.036 52.6575 137.066 52.5635 137.065 52.4697C137.096 52.4381 137.127 52.3753 137.126 52.2816C137.404 51.935 137.742 51.369 138.109 50.6151C138.476 49.8613 138.783 49.3269 138.999 49.0434C139.522 48.2255 139.829 47.6598 139.951 47.3773C140.043 47.2201 140.166 47.0001 140.351 46.7482C140.535 46.4962 140.659 46.3075 140.689 46.1821C140.902 45.7112 141.21 45.208 141.642 44.7035C142.012 44.1684 142.288 43.6968 142.471 43.2887C142.501 43.1634 142.593 42.9749 142.747 42.7546C142.901 42.5342 142.993 42.3458 143.023 42.2204C143.114 41.9695 143.329 41.6235 143.669 41.1825C143.761 41.0565 143.915 40.8362 144.131 40.5215C144.346 40.2067 144.5 39.9551 144.592 39.7979C144.683 39.5782 144.899 39.2323 145.269 38.7909C145.64 38.3496 145.854 37.9724 145.945 37.6902C146.101 37.5948 146.286 37.3742 146.469 36.9972C146.653 36.6203 146.838 36.3684 147.055 36.2412C147.087 36.2409 147.117 36.178 147.116 36.0218C147.147 35.9902 147.301 35.7699 147.578 35.392C147.67 35.2348 147.793 35.0148 147.947 34.7632C148.315 34.1656 148.746 33.5362 149.208 32.8751C149.301 32.7492 149.455 32.5601 149.671 32.3078C149.888 32.0556 150.042 31.8665 150.134 31.7405L151.18 30.0735C151.21 29.9794 151.302 29.8534 151.426 29.6959C151.549 29.5384 151.642 29.4124 151.672 29.3184C151.765 29.2237 151.888 29.0974 152.043 28.9083C152.197 28.7192 152.289 28.562 152.319 28.4367C152.719 27.8388 153.027 27.3981 153.244 27.1458C153.398 26.988 153.614 26.7045 153.86 26.327C154.106 25.9494 154.229 25.7294 154.229 25.6981C154.321 25.5722 154.445 25.4147 154.599 25.2256C154.691 25.0996 154.815 24.9421 155 24.7527C155.186 24.5632 155.278 24.4373 155.278 24.406L156.078 23.179C156.417 22.7692 156.91 22.0766 157.588 21.1009L158.357 19.9367C158.388 19.9051 158.45 19.8419 158.543 19.7472C158.636 19.6525 158.697 19.5894 158.728 19.5578C159.006 19.2112 159.283 18.8021 159.559 18.3305L160.517 17.2268L160.641 17.1005C160.732 16.8183 160.978 16.4408 161.348 15.9995C161.719 15.5581 161.904 15.3062 161.903 15.275C162.243 14.8652 162.52 14.4873 162.736 14.1726C162.827 13.9529 163.012 13.701 163.29 13.3856C163.568 13.0702 163.722 12.8811 163.753 12.7871L163.938 12.5977C164.029 12.253 164.306 11.8751 164.77 11.464C164.77 11.4328 164.801 11.4012 164.832 11.4009C164.861 11.1818 164.952 10.9309 165.106 10.6793C165.26 10.4277 165.352 10.2393 165.382 10.1452L165.562 9.3933C165.559 9.14331 165.588 8.9555 165.681 8.7983C165.833 8.42171 166.018 8.20105 166.237 8.16755C166.454 8.07156 166.829 8.0677 167.393 8.15566C167.612 8.15342 167.707 8.30869 167.71 8.58993C167.809 9.12019 167.659 9.68426 167.29 10.3131L166.644 11.2885C166.429 11.6658 166.091 12.2005 165.597 12.8619C165.104 13.5232 164.766 14.058 164.551 14.4352C164.521 14.5293 164.459 14.6237 164.367 14.7496C164.274 14.8756 164.212 14.9387 164.181 14.9703C164.151 15.0019 164.027 15.1594 163.811 15.4429C163.595 15.7263 163.442 15.9779 163.35 16.1664C162.795 16.8909 162.425 17.3635 162.271 17.5838C162.177 17.616 162.084 17.7107 161.992 17.8679C161.9 18.0251 161.839 18.1195 161.808 18.1511C161.285 18.9378 160.884 19.5357 160.607 19.9448C160.36 20.1973 159.928 20.7643 159.344 21.6766C159.189 21.8345 159.066 21.9607 159.004 22.0551L158.326 23.0309C157.926 23.5663 157.617 23.9757 157.402 24.2592C157.309 24.3539 157.216 24.4799 157.124 24.6371C157.031 24.7318 156.97 24.8262 156.94 24.9202C156.909 25.0143 156.786 25.1718 156.57 25.4241C156.354 25.6763 156.2 25.8966 156.107 26.0539C155.955 26.3992 155.677 26.7771 155.307 27.2184L154.538 28.3826C154.445 28.5086 154.291 28.7289 154.044 29.044C153.798 29.359 153.612 29.5797 153.489 29.7372L152.997 30.4923L152.042 31.8459C151.887 32.0038 151.733 32.2241 151.611 32.5067C151.488 32.6642 151.272 32.9477 150.964 33.3884C150.656 33.829 150.44 34.1125 150.317 34.2701C150.164 34.6154 150.01 34.867 149.887 35.0558C149.733 35.2761 149.486 35.5912 149.178 36.0006C148.87 36.41 148.685 36.662 148.655 36.756C148.655 36.7873 148.624 36.8501 148.594 36.9442C148.35 37.5092 148.103 37.8555 147.886 37.9827C147.855 38.0143 147.793 38.1087 147.701 38.2659C147.671 38.36 147.61 38.4856 147.518 38.6428C147.425 38.8 147.364 38.9256 147.334 39.0197C147.18 39.2401 146.842 39.8061 146.32 40.749L146.259 40.8121C146.041 40.9081 145.855 41.0975 145.702 41.4116C145.549 41.7257 145.457 41.9142 145.427 42.0082L144.812 42.9833C144.782 43.0774 144.628 43.329 144.32 43.7697C144.012 44.2104 143.797 44.5564 143.643 44.808L143.367 45.3108C143.152 45.688 142.967 45.94 142.813 46.0978C142.814 46.2541 142.723 46.4738 142.538 46.7569C142.354 47.0401 142.231 47.2289 142.201 47.3542C142.17 47.3857 142.108 47.4489 142.015 47.5123C141.922 47.5758 141.891 47.6386 141.891 47.6699C141.799 47.8271 141.646 48.0787 141.43 48.3934C141.214 48.7081 141.061 48.9597 140.969 49.1169C140.877 49.2741 140.754 49.4942 140.6 49.777C140.447 50.0598 140.355 50.2483 140.325 50.3424C140.11 50.6883 139.834 51.1912 139.497 51.8822L139.281 52.1032C139.064 52.3242 138.941 52.5442 138.912 52.7633C138.882 52.8573 138.729 53.1714 138.453 53.7055L137.686 55.1197L137.317 55.6861C137.195 55.9686 136.981 56.4083 136.674 56.974C136.368 57.5397 136.184 57.9166 136.092 58.0738C135.848 58.6701 135.634 59.1098 135.449 59.3617C135.356 59.4877 135.111 59.959 134.713 60.7756C134.467 61.1219 134.344 61.3419 134.345 61.4357L134.409 61.5913C134.44 61.5909 134.471 61.5594 134.471 61.4969C134.563 61.3709 134.686 61.2134 134.84 60.993C134.994 60.7727 135.118 60.6152 135.21 60.4892C135.485 59.8926 135.854 59.2638 136.285 58.6031C136.56 58.0377 136.929 57.4714 137.361 56.9357C137.699 56.3384 137.883 55.9928 137.913 55.8987C137.944 55.8046 138.067 55.6471 138.252 55.4264C138.437 55.2058 138.56 55.017 138.653 54.891C138.745 54.7651 138.868 54.5763 139.022 54.356C139.176 54.1356 139.3 53.9781 139.392 53.8521C139.546 53.6005 139.792 53.2542 140.1 52.8135C140.408 52.3729 140.593 52.0897 140.623 51.9956C141.207 51.0521 141.638 50.3601 141.915 49.951C141.945 49.8569 142.069 49.7306 142.255 49.5725L143.362 47.8735C143.455 47.7475 143.578 47.5588 143.763 47.3381C143.948 47.1174 144.071 46.9287 144.164 46.8027C144.256 46.6455 144.441 46.3936 144.719 46.0782C144.997 45.7628 145.182 45.5109 145.274 45.3225C145.366 45.1965 145.644 44.8499 146.106 44.2514C146.26 44.031 146.507 43.6535 146.845 43.1187C146.938 43.0865 147.031 42.9605 147.123 42.7721C147.214 42.5836 147.307 42.4577 147.4 42.4255C147.555 42.2989 147.71 42.141 147.864 41.9519C148.018 41.7628 148.172 41.5425 148.326 41.2909C148.48 41.0393 148.603 40.8505 148.695 40.7246C148.943 40.472 149.282 40.031 149.713 39.4328L151.628 37.163L151.997 36.5967L152.893 35.6186C152.986 35.5239 153.078 35.398 153.202 35.2405C153.325 35.0829 153.418 34.957 153.448 34.8629C153.818 34.3903 154.436 33.6652 155.27 32.7191L156.816 31.1093C157.156 30.7308 157.65 30.1945 158.33 29.4999C158.887 28.9317 159.165 28.6163 159.195 28.5222C159.318 28.3022 159.534 28.05 159.844 27.7655C160.154 27.4811 160.37 27.2601 160.493 27.1026C160.524 27.071 160.586 27.0079 160.679 26.9444C160.772 26.881 160.834 26.8178 160.865 26.7862L161.545 26.0605C162.443 25.2699 162.939 24.8273 163.031 24.7014C163.154 24.4813 163.402 24.26 163.743 24.0065C164.084 23.753 164.301 23.5945 164.394 23.4998C164.518 23.3423 164.734 23.1213 165.044 22.8368C165.631 22.237 166.281 21.6366 166.994 21.0354C167.459 20.6556 168.172 20.117 169.102 19.4199C169.196 19.3877 169.32 19.2927 169.475 19.1348C169.629 18.977 169.753 18.882 169.847 18.8498L172.141 17.0761C172.265 16.9498 172.482 16.7913 172.792 16.5694C173.102 16.3474 173.351 16.1886 173.506 16.062C173.66 15.9042 173.877 15.7457 174.157 15.5865C174.529 15.3327 175.151 14.9513 175.989 14.4426C176.641 13.9672 177.199 13.6177 177.666 13.3941C177.76 13.3931 177.977 13.2659 178.318 12.9811C178.473 12.8545 178.784 12.6951 179.219 12.4718C179.654 12.2486 179.996 12.0576 180.213 11.8991C180.306 11.8044 180.461 11.709 180.71 11.6127C180.959 11.5164 181.115 11.4523 181.208 11.4201C181.332 11.3251 181.581 11.2287 181.924 11.1315C182.267 11.0342 182.516 10.9379 182.64 10.8428C183.356 10.5855 183.823 10.4244 184.042 10.3909C184.198 10.3581 184.54 10.2608 185.07 10.1303C185.6 9.99987 186.037 9.90163 186.349 9.86717C186.599 9.8646 186.974 9.86075 187.443 9.88718C187.912 9.91361 188.256 9.91007 188.474 9.90783C188.568 9.90686 188.693 9.93683 188.851 10.029C189.008 10.1211 189.133 10.1511 189.227 10.1501C189.259 10.181 189.321 10.2116 189.415 10.2419C189.509 10.2722 189.572 10.3028 189.635 10.3334C189.698 10.364 189.761 10.3946 189.792 10.4256C190.013 10.642 190.203 10.8589 190.362 11.1072C190.711 11.6349 190.843 12.2899 190.757 13.072C190.676 14.2604 190.589 14.9801 190.467 15.2314C190.437 15.3567 190.376 15.5448 190.316 15.7955C190.256 16.0461 190.196 16.2342 190.135 16.3599C190.012 16.5799 189.89 16.9249 189.739 17.3952C189.588 17.8656 189.497 18.1478 189.466 18.2418C189.129 18.9016 188.977 19.2782 188.978 19.4031C188.98 19.5281 188.856 19.6857 188.64 19.9067C188.548 20.0639 188.425 20.3151 188.273 20.6917C188.12 21.0683 187.998 21.3196 187.905 21.4455L187.536 22.0119C187.537 22.0431 187.506 22.1372 187.414 22.2631C187.321 22.3891 187.291 22.4832 187.292 22.5769C187.293 22.6706 187.262 22.7022 187.231 22.7025C186.983 22.9551 186.892 23.1748 186.925 23.3307C186.801 23.4257 186.678 23.6458 186.526 24.0224C186.373 24.3989 186.22 24.6505 186.033 24.7775C186.002 24.7778 185.971 24.8093 185.972 24.8718L185.911 24.9975L185.298 26.1601C185.02 26.5067 184.773 26.853 184.59 27.2299C184.067 28.0166 183.698 28.6142 183.483 29.0539C183.329 29.2742 183.114 29.589 182.837 30.0293C182.56 30.4697 182.345 30.7844 182.191 31.0048C181.731 31.822 181.454 32.2624 181.392 32.3568C181.238 32.5771 181.023 32.9231 180.716 33.4263C180.408 33.9295 180.162 34.2758 179.945 34.4968L179.239 35.6604C179.116 35.8804 178.931 36.1635 178.654 36.5414C178.377 36.9193 178.192 37.2025 178.069 37.4225C177.054 38.9642 176.438 39.8769 176.191 40.1607C175.851 40.5704 175.605 40.9167 175.452 41.1996C175.421 41.2936 175.391 41.3877 175.361 41.513C175.331 41.6383 175.301 41.7324 175.27 41.764C174.9 42.2991 174.685 42.6138 174.592 42.7397C174.47 42.991 174.1 43.5261 173.515 44.3447C173.485 44.4387 173.393 44.5959 173.208 44.8478C173.023 45.0998 172.9 45.2885 172.807 45.4145C172.222 46.2643 171.791 46.8938 171.514 47.2716C171.423 47.5226 171.331 47.711 171.238 47.8057L169.424 50.6995C169.177 51.0458 168.808 51.5809 168.347 52.3044C167.885 53.028 167.516 53.5943 167.27 53.9718C166.747 54.7585 166.378 55.3561 166.164 55.7958L165.98 56.1727C166.074 56.1718 166.136 56.1399 166.167 56.1083C166.322 55.9505 166.569 55.6979 166.878 55.3822C167.187 55.0665 167.435 54.8139 167.59 54.6561C167.836 54.3098 168.083 54.0572 168.301 53.8988C168.703 53.5508 168.95 53.267 169.042 53.0473C169.041 52.9223 169.102 52.8592 169.259 52.8576C169.508 52.8238 169.663 52.6347 169.753 52.3212L170.001 52.0687C170.156 51.9733 170.342 51.8152 170.527 51.5632C170.712 51.3113 170.866 51.1535 170.991 51.121C171.208 50.9937 171.456 50.7724 171.765 50.4567C172.075 50.141 172.26 49.9203 172.353 49.8256C172.508 49.7303 172.601 49.6668 172.632 49.6353L172.819 49.5708C172.848 49.4143 172.972 49.2567 173.189 49.0983C173.406 48.9398 173.529 48.7822 173.559 48.6569C173.589 48.5316 173.682 48.4369 173.807 48.4044C174.086 48.1827 174.489 47.8661 175.016 47.4231C175.542 46.9802 175.883 46.6954 176.038 46.5688C176.069 46.5373 176.162 46.4738 176.286 46.41C176.411 46.3462 176.504 46.2828 176.535 46.2512L176.783 46.0612C176.813 45.9358 176.874 45.8102 176.967 45.7155C177.06 45.6208 177.184 45.5258 177.339 45.4304C177.494 45.3351 177.619 45.2713 177.712 45.2391C177.742 45.145 177.835 45.0503 177.99 44.9549L178.58 44.5426L178.704 44.4163C178.735 44.3848 178.765 44.3532 178.797 44.3529C179.168 43.974 179.602 43.6571 180.1 43.4019C180.597 43.1468 181.156 42.8285 181.746 42.4787C181.839 42.384 181.994 42.2886 182.212 42.1614C182.429 42.0342 182.584 41.9076 182.677 41.8128C183.019 41.5906 183.236 41.4946 183.33 41.4936C183.548 41.4601 183.828 41.301 184.169 41.0475C184.542 40.7936 184.977 40.6016 185.507 40.4399L186.597 40.1162C187.003 40.0183 187.315 39.9838 187.534 40.0128C188.596 40.0019 189.19 40.0271 189.347 40.0567C189.879 40.1762 190.288 40.422 190.574 40.8254C191.112 41.4761 191.34 42.4113 191.259 43.631C191.23 43.9125 191.172 44.3507 191.085 44.9453C190.997 45.54 190.97 45.9778 190.973 46.2591C190.944 46.4781 190.885 46.76 190.794 47.1047C190.704 47.4494 190.644 47.6688 190.645 47.7625L190.435 48.6085C190.345 49.0157 190.255 49.3291 190.163 49.5488C190.014 50.2379 189.746 51.5532 189.392 53.5257C189.363 53.7448 189.334 53.9638 189.305 54.2141C189.276 54.4644 189.248 54.7147 189.219 54.9963C189.191 55.2779 189.193 55.4653 189.194 55.5903C189.166 55.9344 189.202 56.4028 189.302 56.9956C189.403 57.6821 189.597 58.3051 189.884 58.8959C190.233 59.3611 190.642 59.6694 191.112 59.7896C191.832 59.9072 192.706 59.7732 193.733 59.3876C193.982 59.2913 194.324 59.1315 194.76 58.9083C195.195 58.6851 195.475 58.5572 195.6 58.5247C195.942 58.3961 196.377 58.1417 196.904 57.7612C197.432 57.3808 197.773 57.1585 197.897 57.0635ZM199.341 48.5482L199.311 48.6735C198.936 48.6773 198.683 48.4299 198.584 47.8997C198.457 47.651 198.422 47.3388 198.512 46.9941C198.511 46.8691 198.541 46.7438 198.571 46.5872C198.6 46.4307 198.661 46.2738 198.722 46.0857C198.782 45.8975 198.843 45.7406 198.874 45.6466C198.962 45.1144 199.174 44.4872 199.511 43.7649C199.633 43.5449 199.847 43.0427 200.12 42.2273C200.394 41.537 200.639 41.0969 200.825 40.9388C201.072 40.5925 201.348 40.0896 201.622 39.3992L201.746 39.273C201.776 39.1789 201.838 39.1158 201.9 39.0839C202.055 38.926 202.147 38.7688 202.176 38.6123C202.329 38.2669 202.483 38.0466 202.638 37.9512L202.761 37.7625C202.792 37.6684 202.853 37.574 202.946 37.4793L203.069 37.2905C203.1 37.2589 203.131 37.1961 203.161 37.1021L204.026 36.1244L205.047 35.1138C205.078 35.0823 205.108 35.0194 205.139 34.9566C205.17 34.8938 205.231 34.8307 205.294 34.7988C205.356 34.7669 205.418 34.735 205.449 34.7034C205.605 34.7018 205.73 34.6693 205.792 34.6374C206.011 34.6351 206.167 34.6023 206.291 34.5698C206.51 34.5675 206.604 34.5978 206.604 34.629C206.762 34.7837 206.827 34.9705 206.797 35.1583C206.584 35.6293 206.43 35.9121 206.306 36.0072C206.213 36.1019 206.121 36.2278 206.029 36.385C205.937 36.5423 205.844 36.6682 205.751 36.7629C205.628 36.8892 205.536 37.0776 205.445 37.3286L205.382 37.3292C205.258 37.4243 205.135 37.613 204.982 37.8959C204.828 38.1787 204.736 38.3359 204.705 38.3675L204.582 38.5563C204.334 38.7151 204.117 38.9361 203.933 39.2192C203.84 39.3452 203.533 39.8171 202.979 40.6354L202.855 40.7617C202.731 40.8567 202.639 41.0139 202.547 41.2648L202.303 41.7986C202.21 41.9246 201.903 42.3965 201.38 43.2144L200.827 44.1577C200.612 44.5037 200.336 45.069 200.001 45.8538C199.664 46.5448 199.482 47.1091 199.455 47.5157C199.459 47.8594 199.461 48.0469 199.492 48.0778C199.524 48.1088 199.68 48.0759 199.96 47.9793L200.986 47.4687C201.141 47.3421 201.42 47.1205 201.792 46.8354C202.164 46.5503 202.443 46.3287 202.661 46.2014C203.837 45.1268 204.549 44.4632 204.765 44.1797L205.817 43.1063L206.466 42.4434C206.775 42.1277 206.991 41.8754 207.115 41.7179C207.95 40.8655 208.568 40.2029 208.97 39.73C209.742 38.8783 210.267 38.2478 210.544 37.87C210.637 37.744 210.791 37.5237 211.006 37.2089C211.222 36.8942 211.407 36.6735 211.531 36.5473C211.562 36.5157 211.777 36.2322 212.147 35.6971C212.302 35.5393 212.457 35.4752 212.614 35.5048L212.926 35.5016C213.145 35.4994 213.239 35.5296 213.24 35.6234C213.337 35.9037 213.339 36.1224 213.247 36.2796C213.216 36.3112 213.123 36.4371 213.001 36.6572C212.878 36.8772 212.786 37.0344 212.693 37.1291C212.664 37.3481 212.541 37.5369 212.355 37.6951L211.371 39.299C211.124 39.5828 210.817 40.1173 210.482 40.902C210.451 40.9961 210.236 41.3733 209.837 42.0337L209.474 43.1937C209.137 43.8847 208.955 44.3866 208.927 44.7307C208.837 45.0754 208.809 45.3569 208.811 45.5757C208.814 45.9194 208.972 46.0428 209.253 45.9774C209.534 45.9745 209.845 45.8463 210.186 45.5616C210.31 45.4665 210.992 44.9595 212.202 44.0408C212.604 43.6928 212.914 43.4396 213.1 43.2815C213.502 42.9023 214.09 42.3025 214.863 41.5133C215.327 41.0397 216.038 40.3136 216.966 39.3353C217.367 38.8624 217.614 38.5786 217.707 38.4839C217.801 38.4517 217.925 38.4191 218.05 38.3866C218.175 38.3541 218.268 38.3531 218.3 38.3528L218.3 38.4153C217.62 39.1411 217.126 39.6774 216.785 40.0247C216.632 40.2763 216.323 40.6545 215.859 41.128L214.406 42.6118L213.54 43.4957C213.169 43.8746 212.89 44.1587 212.673 44.3484C211.837 45.0758 211.124 45.5832 210.564 45.8702C209.881 46.346 209.258 46.5086 208.662 46.3273C208.412 46.2986 208.191 46.1133 208 45.7715C207.872 45.4916 207.838 45.2107 207.867 44.9291C207.864 44.7104 207.952 44.0844 208.16 43.0197L208.525 42.0472C208.616 41.7962 208.707 41.5765 208.799 41.3881C208.829 41.294 208.89 41.1371 208.982 40.9174C209.073 40.6977 209.134 40.5408 209.164 40.4468C209.164 40.4155 209.163 40.353 209.194 40.2902C209.225 40.2274 209.255 40.1646 209.286 40.133C209.286 40.1018 209.317 40.0702 209.411 40.0692L209.409 39.8817L209.285 40.008L209.286 40.133C209.192 40.134 209.13 40.1659 209.099 40.1974C207.894 41.5224 207.183 42.311 206.967 42.532C206.751 42.7842 206.473 43.0996 206.102 43.4784C205.731 43.8573 205.483 44.1098 205.36 44.2673L203.659 46.0662C203.07 46.4785 202.636 46.8267 202.389 47.1105L201.552 47.7442C200.619 48.2225 200.121 48.4777 200.09 48.478C199.934 48.5108 199.685 48.5446 199.341 48.5482ZM214.051 47.6157L214.082 47.6466C213.675 47.557 213.455 47.3718 213.42 47.0909C213.321 46.5606 213.286 46.186 213.315 45.9357C213.401 45.2472 213.52 44.621 213.671 44.0569C213.701 43.9628 213.884 43.5547 214.22 42.8324L215.292 40.6963C215.937 39.5334 216.583 38.5892 217.263 37.8634C217.48 37.6424 217.885 37.5445 218.479 37.5384C218.604 37.5684 218.853 37.5033 219.226 37.3119C220.064 36.7096 220.716 36.2653 221.182 35.9793C222.267 35.1868 223.105 34.6157 223.664 34.2662C224.006 34.0439 224.191 33.8232 224.22 33.5729C224.217 33.3542 224.31 33.2282 224.466 33.1954C224.871 33.0975 225.214 33.0627 225.496 33.0598C225.621 33.0585 225.684 33.1829 225.687 33.4016C225.538 34.1219 225.233 34.9063 224.805 35.7545C224.682 35.9746 224.498 36.3202 224.253 36.7915C224.007 37.2628 223.854 37.5456 223.762 37.6716C223.239 38.5208 222.839 39.1499 222.562 39.559C222.47 39.685 222.161 40.0319 221.604 40.6002L221.421 40.9771L221.359 41.1027L221.298 41.2284C221.144 41.4487 221.177 41.6359 221.429 41.7895C222.12 42.1575 222.777 42.2445 223.401 42.0818C223.962 41.951 224.491 41.7581 224.989 41.5029C226.17 40.897 227.04 40.4193 227.599 40.0698C228.499 39.4668 229.212 38.8656 229.768 38.2974C229.923 38.1395 230.047 38.0445 230.141 38.0123C230.171 37.9807 230.234 37.9801 230.297 38.0419C230.36 38.1038 230.392 38.166 230.361 38.1975C230.269 38.3548 230.207 38.4491 230.145 38.481L229.403 39.2699C228.877 39.7441 228.474 40.092 228.195 40.3137C227.73 40.6622 226.985 41.1387 225.96 41.743C225.4 42.03 224.559 42.3199 223.468 42.5811C223.001 42.6797 222.313 42.6555 221.405 42.5086L221.06 42.3871L220.871 42.2641C220.745 42.1716 220.651 42.1413 220.62 42.1416C220.495 42.1742 220.372 42.3317 220.249 42.583L218.614 44.6624C217.596 45.8917 216.823 46.6809 216.295 47.0301C215.582 47.5687 214.927 47.7629 214.363 47.6125L214.051 47.6157ZM220.413 40.2374L220.319 40.2071C220.415 40.4249 220.509 40.4239 220.6 40.2042C220.846 39.7954 221.061 39.4807 221.247 39.26C221.586 38.8503 222.017 38.1583 222.538 37.1842C222.875 36.4932 223.151 35.9903 223.366 35.6443C223.365 35.6131 223.396 35.5502 223.426 35.4562C223.395 35.4253 223.301 35.395 223.176 35.3963C222.835 35.681 222.462 35.9349 222.058 36.1265C221.5 36.5073 220.63 37.0475 219.45 37.7472C219.326 37.8735 219.296 37.9988 219.329 38.1234C219.424 38.2787 219.551 38.4962 219.679 38.8074C219.808 39.1186 219.935 39.336 220.03 39.4601C220.126 39.7403 220.254 39.989 220.413 40.2374ZM214.949 46.8564L214.792 46.7643C214.886 46.7633 214.917 46.7005 214.916 46.6067C215.444 46.3201 215.878 45.9718 216.217 45.5621C216.434 45.3098 216.742 44.9629 217.175 44.4897C217.608 44.0164 217.917 43.6695 218.102 43.4176C218.287 43.1657 218.533 42.8194 218.841 42.4099C219.15 42.0005 219.366 41.717 219.489 41.5595C219.644 41.4329 219.642 41.2766 219.484 41.0907C219.23 40.6871 219.039 40.3453 218.911 40.0966C218.561 39.4439 218.369 39.0084 218.335 38.7899C218.174 38.3228 217.924 38.2629 217.583 38.6102L217.46 38.7677C216.813 39.6806 216.29 40.4985 215.891 41.2214C215.339 42.1959 214.912 43.2316 214.58 44.3288C214.551 44.5479 214.46 44.8613 214.34 45.3001C214.219 45.7389 214.129 46.0523 214.1 46.2714C214.138 46.9273 214.421 47.1119 214.949 46.8564ZM242.604 37.4154L242.666 37.4148C242.667 37.446 242.698 37.5082 242.731 37.6016C242.391 37.9801 242.144 38.2639 241.958 38.4221C241.71 38.6747 241.339 39.0223 240.813 39.4964C240.286 39.9706 239.883 40.3185 239.604 40.5402C238.459 41.5832 237.778 42.2153 237.53 42.4366C237.189 42.6901 236.29 43.3556 234.832 44.4644C234.708 44.5595 234.429 44.7498 233.994 45.0356C233.56 45.3213 233.218 45.5123 232.938 45.6402C231.57 46.3418 230.512 46.7902 229.764 46.9542C229.172 47.1165 228.484 47.1548 227.702 47.0378C226.794 46.9222 226.289 46.3648 226.153 45.3662C226.152 45.2724 226.151 45.1787 226.119 45.0853C226.087 44.9918 226.086 44.9293 226.086 44.8981C226.198 43.5844 226.529 42.3622 227.08 41.2314C227.601 40.2885 228.032 39.5966 228.371 39.1868C228.495 39.0293 228.927 38.4936 229.699 37.5793C229.791 37.4534 229.914 37.2958 230.069 37.1067C230.161 37.012 230.347 36.8539 230.626 36.601C230.905 36.3481 231.122 36.1584 231.245 36.0008C231.399 35.7493 231.708 35.4961 232.174 35.21C232.64 34.924 232.889 34.7651 232.919 34.7336C233.291 34.386 233.758 34.2562 234.321 34.3129L234.665 34.3094C234.821 34.2765 235.135 34.367 235.606 34.6122C235.763 34.7356 235.828 34.9537 235.769 35.2668C235.556 35.8003 235.278 36.1782 234.937 36.4004C234.099 37.0028 233.415 37.3849 232.886 37.5466L231.734 37.9334C231.577 37.935 231.298 38.1567 230.897 38.6296L230.589 39.039C229.878 39.8276 229.231 40.7405 228.648 41.7778C228.188 42.6264 227.852 43.3799 227.639 44.0071C227.394 44.4159 227.305 44.9481 227.406 45.5721C227.44 45.853 227.63 46.101 227.976 46.3162C228.322 46.5314 228.635 46.622 228.916 46.5878C229.384 46.5518 230.288 46.2612 231.626 45.7474C231.751 45.7149 231.906 45.6196 232.092 45.4926C232.279 45.3657 232.403 45.2707 232.434 45.2391C232.651 45.1119 233.024 44.8893 233.521 44.5717C234.017 44.254 234.421 43.9999 234.7 43.8095C236.468 42.51 237.554 41.6863 237.956 41.3384C238.545 40.8636 239.444 40.1043 240.621 39.0609C241.178 38.5239 241.735 38.0181 242.261 37.5439C242.261 37.5127 242.323 37.4808 242.417 37.4798C242.511 37.4789 242.573 37.447 242.604 37.4154ZM232.782 36.6101L232.752 36.7041C232.503 36.738 232.286 36.9277 232.133 37.273C232.258 37.2405 232.413 37.1764 232.631 37.1117C232.849 37.0469 233.005 36.9828 233.098 36.9506C233.751 36.6001 234.278 36.1572 234.71 35.6215C234.741 35.5899 234.771 35.5271 234.802 35.433C234.832 35.3389 234.831 35.2764 234.831 35.2452C234.612 35.2474 234.488 35.28 234.457 35.3115C233.929 35.6607 233.557 35.9146 233.34 36.1043C233.309 36.1359 233.247 36.199 233.185 36.2622C233.123 36.3253 233.093 36.3881 233.062 36.4197C233.031 36.4513 233 36.4828 232.938 36.5147C232.876 36.5466 232.813 36.5785 232.782 36.6101Z" fill="#0B0B0B"/>
</svg>
