<svg width="11" height="10" viewBox="0 0 11 10" fill="none" xmlns="http://www.w3.org/2000/svg">
<path d="M1.54688 5.11719C1.54688 6.28906 1.69531 7.21875 1.99219 7.90625C2.28906 8.59375 2.74219 8.9375 3.35156 8.9375C3.67969 8.9375 3.96094 8.83594 4.19531 8.63281C4.42969 8.42188 4.60938 8.13281 4.73438 7.76562C4.86719 7.39844 4.96094 7 5.01562 6.57031C5.07812 6.13281 5.10938 5.64844 5.10938 5.11719C5.10938 3.94531 4.96094 3.01172 4.66406 2.31641C4.375 1.62109 3.92969 1.27344 3.32812 1.27344C2.73438 1.27344 2.28906 1.61719 1.99219 2.30469C1.69531 2.99219 1.54688 3.92969 1.54688 5.11719ZM0.585938 5.11719C0.585938 3.52344 0.847656 2.35937 1.37109 1.625C1.89453 0.882812 2.54688 0.511719 3.32812 0.511719C4.1875 0.511719 4.85938 0.90625 5.34375 1.69531C5.82812 2.48438 6.07031 3.625 6.07031 5.11719C6.07031 6.00781 5.97656 6.78906 5.78906 7.46094C5.60938 8.13281 5.3125 8.67578 4.89844 9.08984C4.48438 9.50391 3.96875 9.71094 3.35156 9.71094C2.5625 9.71094 1.90234 9.33203 1.37109 8.57422C0.847656 7.81641 0.585938 6.66406 0.585938 5.11719ZM7.875 2.78516V2.07031H8.22656C8.89844 2.07031 9.35547 1.96875 9.59766 1.76562C9.83984 1.5625 9.96094 1.26953 9.96094 0.886719V0.617188H10.7578V9.61719H9.79688V2.78516H7.875Z" fill="#141414"/>
</svg>
