<svg width="13" height="10" viewBox="0 0 13 10" fill="none" xmlns="http://www.w3.org/2000/svg">
<path d="M1.54688 4.61719C1.54688 5.78906 1.69531 6.71875 1.99219 7.40625C2.28906 8.09375 2.74219 8.4375 3.35156 8.4375C3.67969 8.4375 3.96094 8.33594 4.19531 8.13281C4.42969 7.92188 4.60938 7.63281 4.73438 7.26562C4.86719 6.89844 4.96094 6.5 5.01562 6.07031C5.07812 5.63281 5.10938 5.14844 5.10938 4.61719C5.10938 3.44531 4.96094 2.51172 4.66406 1.81641C4.375 1.12109 3.92969 0.773438 3.32812 0.773438C2.73438 0.773438 2.28906 1.11719 1.99219 1.80469C1.69531 2.49219 1.54688 3.42969 1.54688 4.61719ZM0.585938 4.61719C0.585938 3.02344 0.847656 1.85937 1.37109 1.125C1.89453 0.382812 2.54688 0.0117188 3.32812 0.0117188C4.1875 0.0117188 4.85938 0.40625 5.34375 1.19531C5.82812 1.98438 6.07031 3.125 6.07031 4.61719C6.07031 5.50781 5.97656 6.28906 5.78906 6.96094C5.60938 7.63281 5.3125 8.17578 4.89844 8.58984C4.48438 9.00391 3.96875 9.21094 3.35156 9.21094C2.5625 9.21094 1.90234 8.83203 1.37109 8.07422C0.847656 7.31641 0.585938 6.16406 0.585938 4.61719ZM7.27734 2.20312C7.44922 1.52344 7.75781 0.988281 8.20312 0.597656C8.65625 0.207031 9.24609 0.0117188 9.97266 0.0117188C10.7227 0.0117188 11.3359 0.226563 11.8125 0.65625C12.2891 1.08594 12.5273 1.67969 12.5273 2.4375C12.5273 3.3125 12.0742 4.18359 11.168 5.05078C10.1211 6.05078 9.46094 6.71094 9.1875 7.03125C8.83594 7.44531 8.58984 7.84375 8.44922 8.22656H12.5273V9H7.32422C7.32422 8.70312 7.38672 8.39453 7.51172 8.07422C7.64453 7.74609 7.78516 7.46484 7.93359 7.23047C8.08203 6.99609 8.32812 6.69531 8.67188 6.32812C9.01562 5.95312 9.27734 5.67969 9.45703 5.50781C9.64453 5.32812 9.96484 5.02734 10.418 4.60547C11.1836 3.87891 11.5664 3.15234 11.5664 2.42578C11.5664 1.90234 11.418 1.49609 11.1211 1.20703C10.832 0.917969 10.4414 0.773438 9.94922 0.773438C9.46484 0.773438 9.06641 0.921875 8.75391 1.21875C8.44141 1.51563 8.22266 1.91797 8.09766 2.42578L7.27734 2.20312Z" fill="#141414"/>
</svg>
