<svg width="13" height="10" viewBox="0 0 13 10" fill="none" xmlns="http://www.w3.org/2000/svg">
<path d="M1.54688 5.11719C1.54688 6.28906 1.69531 7.21875 1.99219 7.90625C2.28906 8.59375 2.74219 8.9375 3.35156 8.9375C3.67969 8.9375 3.96094 8.83594 4.19531 8.63281C4.42969 8.42188 4.60938 8.13281 4.73438 7.76562C4.86719 7.39844 4.96094 7 5.01562 6.57031C5.07812 6.13281 5.10938 5.64844 5.10938 5.11719C5.10938 3.94531 4.96094 3.01172 4.66406 2.31641C4.375 1.62109 3.92969 1.27344 3.32812 1.27344C2.73438 1.27344 2.28906 1.61719 1.99219 2.30469C1.69531 2.99219 1.54688 3.92969 1.54688 5.11719ZM0.585938 5.11719C0.585938 3.52344 0.847656 2.35937 1.37109 1.625C1.89453 0.882812 2.54688 0.511719 3.32812 0.511719C4.1875 0.511719 4.85938 0.90625 5.34375 1.69531C5.82812 2.48438 6.07031 3.625 6.07031 5.11719C6.07031 6.00781 5.97656 6.78906 5.78906 7.46094C5.60938 8.13281 5.3125 8.67578 4.89844 9.08984C4.48438 9.50391 3.96875 9.71094 3.35156 9.71094C2.5625 9.71094 1.90234 9.33203 1.37109 8.57422C0.847656 7.81641 0.585938 6.66406 0.585938 5.11719ZM7.11328 7.98828L7.88672 7.68359C8.32422 8.51953 8.98047 8.9375 9.85547 8.9375C10.4023 8.9375 10.8594 8.77734 11.2266 8.45703C11.5938 8.13672 11.7773 7.67188 11.7773 7.0625C11.7773 6.49219 11.5742 6.05078 11.168 5.73828C10.7617 5.41797 10.2695 5.25781 9.69141 5.25781C9.40234 5.25781 9.16797 5.26562 8.98828 5.28125V4.50781C9.15234 4.52344 9.37109 4.53125 9.64453 4.53125C10.1602 4.53125 10.5859 4.38281 10.9219 4.08594C11.2578 3.78125 11.4258 3.37109 11.4258 2.85547C11.4258 2.39453 11.2734 2.01563 10.9688 1.71875C10.6719 1.42187 10.2852 1.27344 9.80859 1.27344C9.05859 1.27344 8.49609 1.71875 8.12109 2.60938L7.34766 2.35156C7.52734 1.8125 7.82812 1.37109 8.25 1.02734C8.67188 0.683594 9.20703 0.511719 9.85547 0.511719C10.6289 0.511719 11.2422 0.726563 11.6953 1.15625C12.1562 1.58594 12.3867 2.125 12.3867 2.77344C12.3867 3.28125 12.25 3.71484 11.9766 4.07422C11.7031 4.43359 11.3711 4.6875 10.9805 4.83594C11.4492 4.96094 11.8594 5.21094 12.2109 5.58594C12.5625 5.96094 12.7383 6.45312 12.7383 7.0625C12.7383 7.90625 12.4727 8.55859 11.9414 9.01953C11.418 9.48047 10.7227 9.71094 9.85547 9.71094C9.17578 9.71094 8.59766 9.54688 8.12109 9.21875C7.65234 8.89062 7.31641 8.48047 7.11328 7.98828Z" fill="#141414"/>
</svg>
