<svg width="15" height="11" viewBox="0 0 15 11" fill="none" xmlns="http://www.w3.org/2000/svg">
<path d="M1.80469 5.38672C1.80469 6.75391 1.97786 7.83854 2.32422 8.64062C2.67057 9.44271 3.19922 9.84375 3.91016 9.84375C4.29297 9.84375 4.62109 9.72526 4.89453 9.48828C5.16797 9.24219 5.3776 8.90495 5.52344 8.47656C5.67839 8.04818 5.78776 7.58333 5.85156 7.08203C5.92448 6.57161 5.96094 6.00651 5.96094 5.38672C5.96094 4.01953 5.78776 2.93034 5.44141 2.11914C5.10417 1.30794 4.58464 0.902344 3.88281 0.902344C3.1901 0.902344 2.67057 1.30339 2.32422 2.10547C1.97786 2.90755 1.80469 4.0013 1.80469 5.38672ZM0.683594 5.38672C0.683594 3.52734 0.988932 2.16927 1.59961 1.3125C2.21029 0.446615 2.97135 0.0136719 3.88281 0.0136719C4.88542 0.0136719 5.66927 0.473958 6.23438 1.39453C6.79948 2.3151 7.08203 3.64583 7.08203 5.38672C7.08203 6.42578 6.97266 7.33724 6.75391 8.12109C6.54427 8.90495 6.19792 9.53841 5.71484 10.0215C5.23177 10.5046 4.63021 10.7461 3.91016 10.7461C2.98958 10.7461 2.2194 10.304 1.59961 9.41992C0.988932 8.53581 0.683594 7.19141 0.683594 5.38672ZM8.43555 8.8457L9.33789 8.50391C9.53841 8.91406 9.82096 9.24219 10.1855 9.48828C10.5592 9.72526 10.9694 9.84375 11.416 9.84375C12.0996 9.84375 12.6283 9.62044 13.002 9.17383C13.3848 8.72721 13.5762 8.14844 13.5762 7.4375C13.5762 6.71745 13.3711 6.13411 12.9609 5.6875C12.5508 5.23177 12.0176 5.00391 11.3613 5.00391C10.6139 5.00391 9.95768 5.30924 9.39258 5.91992L8.73633 5.66016L9.25586 0.259766H14.0957V1.16211H10.2676L9.88477 4.67578C10.4225 4.30208 11.0423 4.11523 11.7441 4.11523C12.61 4.11523 13.3164 4.41602 13.8633 5.01758C14.4193 5.61003 14.6973 6.40755 14.6973 7.41016C14.6973 8.33984 14.4193 9.12826 13.8633 9.77539C13.3073 10.4225 12.4915 10.7461 11.416 10.7461C10.0306 10.7461 9.03711 10.1126 8.43555 8.8457Z" fill="black"/>
</svg>
