<svg width="15" height="12" viewBox="0 0 15 12" fill="none" xmlns="http://www.w3.org/2000/svg">
<path d="M1.80469 5.88672C1.80469 7.25391 1.97786 8.33854 2.32422 9.14062C2.67057 9.94271 3.19922 10.3438 3.91016 10.3438C4.29297 10.3438 4.62109 10.2253 4.89453 9.98828C5.16797 9.74219 5.3776 9.40495 5.52344 8.97656C5.67839 8.54818 5.78776 8.08333 5.85156 7.58203C5.92448 7.07161 5.96094 6.50651 5.96094 5.88672C5.96094 4.51953 5.78776 3.43034 5.44141 2.61914C5.10417 1.80794 4.58464 1.40234 3.88281 1.40234C3.1901 1.40234 2.67057 1.80339 2.32422 2.60547C1.97786 3.40755 1.80469 4.5013 1.80469 5.88672ZM0.683594 5.88672C0.683594 4.02734 0.988932 2.66927 1.59961 1.8125C2.21029 0.946615 2.97135 0.513672 3.88281 0.513672C4.88542 0.513672 5.66927 0.973958 6.23438 1.89453C6.79948 2.8151 7.08203 4.14583 7.08203 5.88672C7.08203 6.92578 6.97266 7.83724 6.75391 8.62109C6.54427 9.40495 6.19792 10.0384 5.71484 10.5215C5.23177 11.0046 4.63021 11.2461 3.91016 11.2461C2.98958 11.2461 2.2194 10.804 1.59961 9.91992C0.988932 9.03581 0.683594 7.69141 0.683594 5.88672ZM9.66602 7.81445C9.66602 8.55273 9.85742 9.15885 10.2402 9.63281C10.6322 10.1068 11.1426 10.3438 11.7715 10.3438C12.373 10.3438 12.8698 10.1113 13.2617 9.64648C13.6536 9.17253 13.8496 8.56185 13.8496 7.81445C13.8496 7.04883 13.6491 6.43359 13.248 5.96875C12.8561 5.49479 12.3548 5.25781 11.7441 5.25781C11.1517 5.25781 10.6549 5.50391 10.2539 5.99609C9.86198 6.48828 9.66602 7.0944 9.66602 7.81445ZM8.49023 6.43359C8.49023 5.84115 8.52669 5.27148 8.59961 4.72461C8.68164 4.17773 8.8138 3.64453 8.99609 3.125C9.17839 2.60547 9.40625 2.15885 9.67969 1.78516C9.95312 1.40234 10.2995 1.09701 10.7188 0.869141C11.138 0.632161 11.6074 0.513672 12.127 0.513672C13.3301 0.513672 14.2324 1.12435 14.834 2.3457L13.959 2.66016C13.485 1.82161 12.8743 1.40234 12.127 1.40234C11.735 1.40234 11.3887 1.50716 11.0879 1.7168C10.7871 1.91732 10.5456 2.19531 10.3633 2.55078C10.1901 2.89714 10.0534 3.24349 9.95312 3.58984C9.85286 3.9362 9.77539 4.3099 9.7207 4.71094C9.66602 5.07552 9.62044 5.48568 9.58398 5.94141C9.76628 5.46745 10.0625 5.08464 10.4727 4.79297C10.8919 4.5013 11.3704 4.35547 11.9082 4.35547C12.8014 4.35547 13.5306 4.68359 14.0957 5.33984C14.6608 5.99609 14.9434 6.81641 14.9434 7.80078C14.9434 8.78516 14.6608 9.60547 14.0957 10.2617C13.5397 10.918 12.7832 11.2461 11.8262 11.2461C10.8145 11.2461 10.0124 10.8861 9.41992 10.166C8.80013 9.41862 8.49023 8.17448 8.49023 6.43359Z" fill="black"/>
</svg>
