<svg width="259" height="25" viewBox="0 0 259 25" fill="none" xmlns="http://www.w3.org/2000/svg">
<path d="M258.218 18.6261C258.218 18.5495 258.295 18.5239 258.448 18.5495C258.601 18.5495 258.678 18.5878 258.678 18.6645C258.448 20.3252 258.333 22.037 258.333 23.8C258.333 24.0044 258.282 24.1577 258.18 24.2599C258.103 24.3365 257.95 24.3749 257.72 24.3749H241.508C241.457 24.3749 241.432 24.2982 241.432 24.1449C241.432 23.9916 241.457 23.915 241.508 23.915C242.454 23.915 243.143 23.8511 243.578 23.7233C244.012 23.5956 244.306 23.3529 244.459 22.9952C244.613 22.6119 244.689 22.037 244.689 21.2706V3.52618C244.689 2.75969 244.613 2.19759 244.459 1.83989C244.306 1.48219 244.012 1.23947 243.578 1.11172C243.143 0.95842 242.454 0.881771 241.508 0.881771C241.457 0.881771 241.432 0.805122 241.432 0.651823C241.432 0.498524 241.457 0.421875 241.508 0.421875H257.068C257.298 0.421875 257.413 0.536849 257.413 0.766796L257.49 5.55739C257.49 5.63404 257.413 5.67237 257.26 5.67237C257.132 5.67237 257.068 5.63404 257.068 5.55739C256.915 4.1777 256.442 3.11738 255.65 2.37644C254.858 1.63549 253.823 1.26502 252.546 1.26502H250.438C249.237 1.26502 248.445 1.43109 248.062 1.76324C247.679 2.09539 247.487 2.73414 247.487 3.67948V11.4977H251.894C253.172 11.4977 254.092 11.2806 254.654 10.8462C255.241 10.4119 255.535 9.70925 255.535 8.73835C255.535 8.68725 255.612 8.6617 255.765 8.6617C255.918 8.6617 255.995 8.68725 255.995 8.73835L255.957 11.9193C255.957 12.6603 255.97 13.2223 255.995 13.6056L256.033 15.5218C256.033 15.5729 255.957 15.5985 255.803 15.5985C255.65 15.5985 255.573 15.5729 255.573 15.5218C255.573 14.3976 255.28 13.5928 254.692 13.1074C254.104 12.5964 253.146 12.3409 251.818 12.3409H247.487V21.1173C247.487 21.7815 247.564 22.2798 247.717 22.6119C247.87 22.9441 248.138 23.1868 248.522 23.3401C248.905 23.4678 249.493 23.5317 250.285 23.5317H253.006C254.36 23.5317 255.484 23.1101 256.378 22.267C257.273 21.3983 257.886 20.1847 258.218 18.6261Z" fill="white"/>
<path d="M226.633 4.7906C226.633 5.76149 226.876 6.61741 227.361 7.35836C227.847 8.0993 228.434 8.72528 229.124 9.23627C229.814 9.74727 230.785 10.3732 232.037 11.1142C233.34 11.9062 234.362 12.5833 235.103 13.1454C235.844 13.7075 236.47 14.4101 236.981 15.2533C237.517 16.0964 237.786 17.0929 237.786 18.2426C237.786 19.4945 237.466 20.6187 236.828 21.6152C236.214 22.6116 235.307 23.4037 234.106 23.9913C232.906 24.5534 231.488 24.8345 229.852 24.8345C227.783 24.8345 225.943 24.3746 224.334 23.4548C224.206 23.3781 224.116 23.2887 224.065 23.1865C224.014 23.0843 223.976 22.931 223.95 22.7266L223.529 17.3611C223.503 17.2589 223.554 17.1951 223.682 17.1695C223.835 17.144 223.925 17.1823 223.95 17.2845C224.461 19.1752 225.266 20.7976 226.365 22.1517C227.464 23.4803 228.92 24.1446 230.734 24.1446C231.986 24.1446 233.033 23.8125 233.877 23.1482C234.72 22.4839 235.141 21.398 235.141 19.8906C235.141 18.7408 234.886 17.7571 234.375 16.9396C233.864 16.0964 233.238 15.3938 232.497 14.8317C231.781 14.244 230.798 13.5797 229.546 12.8388C228.294 12.0468 227.323 11.3952 226.633 10.8842C225.943 10.3477 225.356 9.68339 224.87 8.89135C224.385 8.07375 224.142 7.11563 224.142 6.01699C224.142 4.71395 224.487 3.6153 225.177 2.72106C225.867 1.80127 226.774 1.12419 227.898 0.689846C229.022 0.229949 230.21 0 231.462 0C233.046 0 234.566 0.293823 236.023 0.88147C236.406 1.06032 236.598 1.29027 236.598 1.57132L236.828 6.17029C236.828 6.27249 236.751 6.33636 236.598 6.36191C236.47 6.38746 236.393 6.34914 236.368 6.24694C236.112 4.8928 235.537 3.6153 234.643 2.41446C233.749 1.21362 232.459 0.613198 230.772 0.613198C229.418 0.613198 228.383 1.00922 227.668 1.80126C226.978 2.59331 226.633 3.58975 226.633 4.7906Z" fill="white"/>
<path d="M216.309 4.75257C216.309 3.47508 216.015 2.51696 215.427 1.87822C214.865 1.21392 214.035 0.881771 212.936 0.881771C212.86 0.881771 212.821 0.805122 212.821 0.651823C212.821 0.498524 212.86 0.421875 212.936 0.421875L214.623 0.460199C215.491 0.511298 216.219 0.536848 216.807 0.536848C217.293 0.536848 217.944 0.511298 218.762 0.460199L220.371 0.421875C220.422 0.421875 220.448 0.498524 220.448 0.651823C220.448 0.805122 220.422 0.881771 220.371 0.881771C219.349 0.881771 218.583 1.21392 218.072 1.87822C217.561 2.51696 217.305 3.47508 217.305 4.75257V15.5985C217.305 18.4856 216.475 20.7596 214.814 22.4203C213.153 24.0555 210.931 24.8731 208.146 24.8731C206.255 24.8731 204.594 24.5026 203.163 23.7617C201.758 23.0207 200.66 21.9732 199.868 20.619C199.076 19.2393 198.679 17.6297 198.679 15.7901V3.52618C198.679 2.75969 198.603 2.19759 198.45 1.83989C198.296 1.48219 198.002 1.23947 197.568 1.11172C197.134 0.95842 196.444 0.881771 195.499 0.881771C195.447 0.881771 195.422 0.805122 195.422 0.651823C195.422 0.498524 195.447 0.421875 195.499 0.421875L197.415 0.460199C198.539 0.511298 199.42 0.536848 200.059 0.536848C200.775 0.536848 201.694 0.511298 202.819 0.460199L204.62 0.421875C204.696 0.421875 204.735 0.498524 204.735 0.651823C204.735 0.805122 204.696 0.881771 204.62 0.881771C203.7 0.881771 203.023 0.95842 202.589 1.11172C202.154 1.26502 201.86 1.53329 201.707 1.91654C201.554 2.27424 201.477 2.83633 201.477 3.60283V14.4487C201.477 17.4636 202.141 19.7631 203.47 21.3472C204.799 22.9057 206.677 23.685 209.104 23.685C211.378 23.685 213.141 22.9824 214.393 21.5771C215.67 20.1464 216.309 18.1662 216.309 15.6368V4.75257Z" fill="white"/>
<path d="M193.51 23.915C193.587 23.915 193.625 23.9916 193.625 24.1449C193.625 24.2982 193.587 24.3749 193.51 24.3749C192.692 24.3749 192.041 24.3621 191.555 24.3365L188.911 24.2982L186.343 24.3365C185.934 24.3621 185.36 24.3749 184.619 24.3749C184.568 24.3749 184.542 24.2982 184.542 24.1449C184.542 23.9916 184.568 23.915 184.619 23.915C185.487 23.915 186.126 23.8511 186.535 23.7233C186.944 23.57 187.212 23.3145 187.34 22.9568C187.493 22.5991 187.544 22.037 187.493 21.2706L186.765 4.21603L178.18 24.1066C178.129 24.2088 178.027 24.2599 177.874 24.2599C177.746 24.2599 177.631 24.2088 177.529 24.1066L168.062 4.29268L167.756 20.0825C167.73 21.4366 167.96 22.4203 168.446 23.0335C168.957 23.6211 169.8 23.915 170.975 23.915C171.026 23.915 171.052 23.9916 171.052 24.1449C171.052 24.2982 171.026 24.3749 170.975 24.3749C170.26 24.3749 169.71 24.3621 169.327 24.3365L167.258 24.2982L165.188 24.3365C164.83 24.3621 164.319 24.3749 163.655 24.3749C163.578 24.3749 163.54 24.2982 163.54 24.1449C163.54 23.9916 163.578 23.915 163.655 23.915C164.703 23.915 165.482 23.6084 165.993 22.9952C166.504 22.382 166.772 21.4111 166.798 20.0825L167.143 2.64471C166.376 1.46942 165.303 0.881771 163.923 0.881771C163.847 0.881771 163.808 0.805122 163.808 0.651823C163.808 0.498524 163.847 0.421875 163.923 0.421875L165.418 0.460199C165.699 0.485749 166.069 0.498524 166.529 0.498524C167.04 0.498524 167.462 0.485749 167.794 0.460199C168.152 0.43465 168.433 0.421875 168.637 0.421875C168.969 0.421875 169.238 0.536849 169.442 0.766796C169.646 0.996745 169.966 1.54607 170.4 2.41476L178.947 20.0442L187.071 1.37999C187.352 0.741248 187.736 0.421875 188.221 0.421875C188.349 0.421875 188.541 0.43465 188.796 0.460199C189.052 0.485749 189.384 0.498524 189.793 0.498524L191.709 0.460199C191.99 0.43465 192.424 0.421875 193.012 0.421875C193.063 0.421875 193.088 0.498524 193.088 0.651823C193.088 0.805122 193.063 0.881771 193.012 0.881771C191.734 0.881771 190.815 1.08617 190.252 1.49497C189.716 1.87822 189.46 2.58084 189.486 3.60283L190.291 21.2706C190.342 22.0626 190.444 22.6375 190.597 22.9952C190.751 23.3529 191.032 23.5956 191.44 23.7233C191.875 23.8511 192.565 23.915 193.51 23.915Z" fill="white"/>
<path d="M153.175 23.9147C153.277 23.9147 153.328 23.9913 153.328 24.1446C153.328 24.2979 153.277 24.3746 153.175 24.3746C152.689 24.3746 151.936 24.349 150.914 24.2979C149.892 24.2468 149.138 24.2213 148.652 24.2213C148.065 24.2213 147.337 24.2468 146.468 24.2979C145.65 24.349 145.012 24.3746 144.552 24.3746C144.449 24.3746 144.398 24.2979 144.398 24.1446C144.398 23.9913 144.449 23.9147 144.552 23.9147C145.471 23.9147 146.123 23.838 146.506 23.6847C146.915 23.5059 147.119 23.1993 147.119 22.7649C147.119 22.3817 146.941 21.8068 146.583 21.0403L143.287 14.1418H134.127L131.866 19.3923C131.534 20.1588 131.368 20.8615 131.368 21.5002C131.368 23.1098 132.607 23.9147 135.085 23.9147C135.213 23.9147 135.277 23.9913 135.277 24.1446C135.277 24.2979 135.213 24.3746 135.085 24.3746C134.626 24.3746 133.961 24.349 133.093 24.2979C132.122 24.2468 131.278 24.2213 130.563 24.2213C129.924 24.2213 129.145 24.2468 128.225 24.2979C127.459 24.349 126.807 24.3746 126.271 24.3746C126.143 24.3746 126.079 24.2979 126.079 24.1446C126.079 23.9913 126.143 23.9147 126.271 23.9147C126.986 23.9147 127.587 23.7869 128.072 23.5314C128.583 23.2504 129.068 22.7649 129.528 22.0751C129.988 21.3852 130.499 20.376 131.061 19.0474L139.148 0.114975C139.199 0.038325 139.301 0 139.454 0C139.608 0 139.697 0.038325 139.723 0.114975L148.844 19.1241C149.713 20.9892 150.454 22.2539 151.067 22.9182C151.68 23.5825 152.383 23.9147 153.175 23.9147ZM134.472 13.337H142.904L138.458 4.06243L134.472 13.337Z" fill="white"/>
<path d="M125.484 0.421875C125.56 0.421875 125.599 0.498524 125.599 0.651823C125.599 0.805122 125.56 0.881771 125.484 0.881771C124.436 0.881771 123.657 1.20114 123.146 1.83989C122.66 2.45309 122.418 3.42398 122.418 4.75257V24.8348C122.418 24.9114 122.354 24.9625 122.226 24.9881C122.098 25.0136 122.009 25.0008 121.958 24.9497L104.099 3.5645L103.984 3.41121V20.0825C103.984 21.4111 104.226 22.382 104.712 22.9952C105.197 23.6084 105.951 23.915 106.973 23.915C107.05 23.915 107.088 23.9916 107.088 24.1449C107.088 24.2982 107.05 24.3749 106.973 24.3749C106.36 24.3749 105.874 24.3621 105.517 24.3365L103.562 24.2982L101.531 24.3365C101.148 24.3621 100.598 24.3749 99.8828 24.3749C99.8317 24.3749 99.8061 24.2982 99.8061 24.1449C99.8061 23.9916 99.8317 23.915 99.8828 23.915C100.981 23.915 101.773 23.6084 102.259 22.9952C102.77 22.382 103.025 21.4111 103.025 20.0825V2.41476C101.978 1.39277 100.918 0.881771 99.8445 0.881771C99.7678 0.881771 99.7295 0.805122 99.7295 0.651823C99.7295 0.498524 99.7678 0.421875 99.8445 0.421875L101.262 0.460199C101.569 0.485749 102.003 0.498524 102.566 0.498524L104.367 0.460199C104.571 0.43465 104.839 0.421875 105.172 0.421875C105.376 0.421875 105.517 0.472974 105.593 0.575172C105.695 0.651822 105.849 0.843447 106.053 1.15005C106.36 1.60994 106.666 2.03152 106.973 2.41476L121.46 19.9675V4.75257C121.46 3.42398 121.23 2.45309 120.77 1.83989C120.31 1.20114 119.556 0.881771 118.509 0.881771C118.458 0.881771 118.432 0.805122 118.432 0.651823C118.432 0.498524 118.458 0.421875 118.509 0.421875L120.003 0.460199C120.821 0.511298 121.472 0.536848 121.958 0.536848C122.443 0.536848 123.095 0.511298 123.912 0.460199L125.484 0.421875Z" fill="white"/>
<path d="M98.3075 23.9147C98.4097 23.9147 98.4608 23.9913 98.4608 24.1446C98.4608 24.2979 98.4097 24.3746 98.3075 24.3746C97.8221 24.3746 97.0684 24.349 96.0464 24.2979C95.0244 24.2468 94.2707 24.2213 93.7852 24.2213C93.1976 24.2213 92.4694 24.2468 91.6007 24.2979C90.7831 24.349 90.1444 24.3746 89.6845 24.3746C89.5823 24.3746 89.5312 24.2979 89.5312 24.1446C89.5312 23.9913 89.5823 23.9147 89.6845 23.9147C90.6042 23.9147 91.2558 23.838 91.639 23.6847C92.0478 23.5059 92.2522 23.1993 92.2522 22.7649C92.2522 22.3817 92.0734 21.8068 91.7157 21.0403L88.4197 14.1418H79.2601L76.999 19.3923C76.6668 20.1588 76.5007 20.8615 76.5007 21.5002C76.5007 23.1098 77.7399 23.9147 80.2182 23.9147C80.346 23.9147 80.4099 23.9913 80.4099 24.1446C80.4099 24.2979 80.346 24.3746 80.2182 24.3746C79.7583 24.3746 79.094 24.349 78.2253 24.2979C77.2545 24.2468 76.4113 24.2213 75.6959 24.2213C75.0572 24.2213 74.2779 24.2468 73.3581 24.2979C72.5916 24.349 71.9401 24.3746 71.4035 24.3746C71.2758 24.3746 71.2119 24.2979 71.2119 24.1446C71.2119 23.9913 71.2758 23.9147 71.4035 23.9147C72.1189 23.9147 72.7194 23.7869 73.2048 23.5314C73.7158 23.2504 74.2012 22.7649 74.6611 22.0751C75.121 21.3852 75.632 20.376 76.1941 19.0474L84.2807 0.114975C84.3318 0.038325 84.434 0 84.5873 0C84.7406 0 84.83 0.038325 84.8555 0.114975L93.9768 19.1241C94.8455 20.9892 95.5865 22.2539 96.1997 22.9182C96.8129 23.5825 97.5155 23.9147 98.3075 23.9147ZM79.605 13.337H88.0365L83.5908 4.06243L79.605 13.337Z" fill="white"/>
<path d="M58.1771 4.7906C58.1771 5.76149 58.4198 6.61741 58.9053 7.35836C59.3907 8.0993 59.9784 8.72528 60.6682 9.23627C61.3581 9.74727 62.329 10.3732 63.5809 11.1142C64.8839 11.9062 65.9059 12.5833 66.6469 13.1454C67.3878 13.7075 68.0138 14.4101 68.5248 15.2533C69.0613 16.0964 69.3296 17.0929 69.3296 18.2426C69.3296 19.4945 69.0102 20.6187 68.3715 21.6152C67.7583 22.6116 66.8513 23.4037 65.6504 23.9913C64.4496 24.5534 63.0316 24.8345 61.3964 24.8345C59.3268 24.8345 57.4873 24.3746 55.8776 23.4548C55.7499 23.3781 55.6604 23.2887 55.6093 23.1865C55.5582 23.0843 55.5199 22.931 55.4944 22.7266L55.0728 17.3611C55.0472 17.2589 55.0983 17.1951 55.2261 17.1695C55.3794 17.144 55.4688 17.1823 55.4944 17.2845C56.0054 19.1752 56.8102 20.7976 57.9088 22.1517C59.0075 23.4803 60.4638 24.1446 62.2778 24.1446C63.5298 24.1446 64.5773 23.8125 65.4205 23.1482C66.2636 22.4839 66.6852 21.398 66.6852 19.8906C66.6852 18.7408 66.4297 17.7571 65.9187 16.9396C65.4077 16.0964 64.7817 15.3938 64.0408 14.8317C63.3254 14.244 62.3417 13.5797 61.0898 12.8388C59.8378 12.0468 58.8669 11.3952 58.1771 10.8842C57.4873 10.3477 56.8996 9.68339 56.4142 8.89135C55.9287 8.07375 55.686 7.11563 55.686 6.01699C55.686 4.71395 56.0309 3.6153 56.7208 2.72106C57.4106 1.80127 58.3176 1.12419 59.4418 0.689846C60.566 0.229949 61.7541 0 63.006 0C64.5901 0 66.1103 0.293823 67.5667 0.88147C67.9499 1.06032 68.1415 1.29027 68.1415 1.57132L68.3715 6.17029C68.3715 6.27249 68.2948 6.33636 68.1415 6.36191C68.0138 6.38746 67.9371 6.34914 67.9116 6.24694C67.6561 4.8928 67.0812 3.6153 66.187 2.41446C65.2927 1.21362 64.0025 0.613198 62.3162 0.613198C60.962 0.613198 59.9273 1.00922 59.2119 1.80126C58.522 2.59331 58.1771 3.58975 58.1771 4.7906Z" fill="white"/>
<path d="M52.1845 23.915C52.2611 23.915 52.2995 23.9916 52.2995 24.1449C52.2995 24.2982 52.2611 24.3749 52.1845 24.3749H47.8921C47.6622 24.3749 47.2662 24.3749 46.7041 24.3749C46.1675 24.4004 45.286 23.6084 44.0596 21.9987C42.8588 20.3635 42.0668 19.3032 41.6835 18.8178L35.9731 11.5744L34.785 12.7241V21.2706C34.785 22.0626 34.8617 22.6375 35.015 22.9952C35.1683 23.3529 35.4621 23.5956 35.8965 23.7233C36.3308 23.8511 37.0207 23.915 37.966 23.915C38.0427 23.915 38.081 23.9916 38.081 24.1449C38.081 24.2982 38.0427 24.3749 37.966 24.3749C37.1484 24.3749 36.5224 24.3621 36.0881 24.3365L33.367 24.2982L30.7226 24.3365C30.2372 24.3621 29.5856 24.3749 28.7681 24.3749C28.717 24.3749 28.6914 24.2982 28.6914 24.1449C28.6914 23.9916 28.717 23.915 28.7681 23.915C29.7134 23.915 30.4032 23.8511 30.8376 23.7233C31.2719 23.5956 31.5658 23.3529 31.7191 22.9952C31.8979 22.6119 31.9873 22.037 31.9873 21.2706V3.52618C31.9873 2.75969 31.9107 2.19759 31.7574 1.83989C31.6041 1.48219 31.3103 1.23947 30.8759 1.11172C30.4416 0.95842 29.7517 0.881771 28.8064 0.881771C28.7553 0.881771 28.7297 0.805122 28.7297 0.651823C28.7297 0.498524 28.7553 0.421875 28.8064 0.421875L30.7226 0.460199C31.8468 0.511298 32.7283 0.536848 33.367 0.536848C34.108 0.536848 35.015 0.511298 36.0881 0.460199L37.966 0.421875C38.0171 0.421875 38.0427 0.498524 38.0427 0.651823C38.0427 0.805122 38.0171 0.881771 37.966 0.881771C37.0462 0.881771 36.3564 0.95842 35.8965 1.11172C35.4621 1.26502 35.1683 1.53329 35.015 1.91654C34.8617 2.27424 34.785 2.83633 34.785 3.60283V11.7277L42.7949 3.67948C43.6125 2.81079 44.0213 2.17204 44.0213 1.76324C44.0213 1.17559 43.2676 0.881771 41.7602 0.881771C41.7091 0.881771 41.6835 0.805122 41.6835 0.651823C41.6835 0.498524 41.7091 0.421875 41.7602 0.421875L43.4464 0.460199C44.4684 0.511298 45.4266 0.536848 46.3208 0.536848C47.215 0.536848 48.1221 0.511298 49.0419 0.460199L50.5365 0.421875C50.6132 0.421875 50.6515 0.498524 50.6515 0.651823C50.6515 0.805122 50.6132 0.881771 50.5365 0.881771C49.4634 0.881771 48.3137 1.13727 47.0873 1.64827C45.8609 2.13371 44.7367 2.88744 43.7147 3.90943L37.966 9.61982L43.4848 16.7482C45.3244 19.1499 46.7168 20.849 47.6622 21.8454C48.6331 22.8419 49.3868 23.4423 49.9233 23.6467C50.4599 23.8255 51.2136 23.915 52.1845 23.915Z" fill="white"/>
<path d="M12.149 24.8345C9.77282 24.8345 7.65218 24.2851 5.78704 23.1865C3.94745 22.0623 2.51666 20.5549 1.49467 18.6642C0.498222 16.7479 0 14.6656 0 12.4172C0 9.78559 0.664296 7.53721 1.99289 5.67207C3.32148 3.78138 5.02055 2.36336 7.09008 1.41802C9.18517 0.472672 11.3186 0 13.4903 0C15.9176 0 18.051 0.574872 19.8906 1.72462C21.7301 2.84881 23.1354 4.34347 24.1063 6.20861C25.1027 8.07375 25.6009 10.0539 25.6009 12.149C25.6009 14.474 24.9878 16.6074 23.7614 18.5492C22.535 20.491 20.887 22.024 18.8175 23.1482C16.7735 24.2724 14.5506 24.8345 12.149 24.8345ZM13.4903 23.9913C15.1766 23.9913 16.6841 23.5697 18.0126 22.7266C19.3668 21.8834 20.4271 20.6571 21.1936 19.0474C21.9856 17.4122 22.3817 15.4704 22.3817 13.222C22.3817 10.8459 21.9473 8.72528 21.0786 6.86014C20.2355 4.995 19.0219 3.53865 17.4378 2.49111C15.8537 1.44357 14.0141 0.919794 11.919 0.919794C9.18517 0.919794 7.05176 1.82681 5.51877 3.64085C3.98578 5.42934 3.21928 7.90768 3.21928 11.0759C3.21928 13.4775 3.65363 15.6621 4.52232 17.6294C5.39102 19.5967 6.60464 21.1553 8.16318 22.305C9.72172 23.4292 11.4974 23.9913 13.4903 23.9913Z" fill="white"/>
</svg>
